<svg id="ehoAT9ZUmn81" xmlns="http://www.w3.org/2000/svg" xmlns:xlink="http://www.w3.org/1999/xlink" viewBox="0 0 609.84 452.84" shape-rendering="geometricPrecision" text-rendering="geometricPrecision"><g id="ehoAT9ZUmn82"><path id="ehoAT9ZUmn83" d="M296.42,139.58C240.8,144.64,179.69,159.76,148.18,210.42C135.09,231.42,129.93,256.6,136.18,280.78C141.92,303,156.85,323.34,178.5,332.12C190.75,337.12,205.79,338.12,216.19,328.58C224.675187,320.982701,225.783526,308.094425,218.72,299.16C202.67,277.99,172.46,285.48,154.72,299.87C131.64,318.62,123.65,348.92,115.32,376.14C110.42,392.14,105.42,408.14,100.63,424.24C96.52,438.09,93.3,452.88,98.2,467C106.72,491.54,131.81,505.8,156.92,506.27C187.22,506.85,214.14,490.72,236.86,472.21C242.75,467.4,248.47,462.38,254.15,457.33L248.26,456.57C258.618573,473.431476,276.512948,484.220293,296.26,485.51C301.08,485.84,301.06,478.33,296.26,478.01C279.16199,476.79331,263.701323,467.402221,254.74,452.79C254.140414,451.802161,253.12391,451.140824,251.977846,450.992945C250.831782,450.845066,249.680699,451.226714,248.85,452.03C228.98,469.68,207.85,487.74,181.85,495.28C158.32,502.08,131.72,499.28,114.63,480.28C106.833797,471.772735,102.733525,460.518567,103.23,448.99C103.85,434.99,109.48,421.14,113.54,407.87C117.83,393.87,122.08,379.77,126.43,365.74C130.29,353.27,134.43,340.74,140.66,329.26C151.03,310.26,172.4,289.09,196.32,293.9C205.38,295.73,217.01,303.18,216.03,313.79C214.62,329.12,195.34,329.99,184.31,326.34C164.16,319.68,150.02,301.34,144.18,281.5C138,260.5,141.26,238.5,151.66,219.44C180.01,167.44,241.85,152.1,296.45,147.13C301.22,146.7,301.26,139.19,296.45,139.63Z" transform="matrix(1 0 0 1 -95.73 -53.44)" fill="rgb(248,139,178)" stroke="none" stroke-width="1"/><path id="ehoAT9ZUmn84" d="M478.44,182.87C465,173.15,462.53,153.94,477.2,144C491.87,134.06,510.91,139.52,524.48,148.55C550.82,166.06,562.75,198.13,573.93,226.26C580.79,243.5,587.76,260.97,598.41,276.26C608.94,291.41,623.12,302.4,638.41,312.39C654.28,322.81,671.35,332.63,683,348C694.3,362.95,699.28,382.14,697.86,400.73C695.03,437.73,663.07,468.15,626.35,470.73C621.56,471.07,621.52,478.57,626.35,478.23C661.75,475.78,693.12,450.66,702.66,416.31C707.66319,397.642168,706.214934,377.831721,698.55,360.09C690.33,340.98,674.88,327.58,657.96,316.22C640.06,304.22,620.71,293.65,607.48,276.12C594.75,259.27,587.17,239.31,579.42,219.86C567.02,188.74,552.42,153.95,520.92,137.86C503.65,129.02,479.66,127.94,466.12,144.1C453.77,158.82,460.31,179,474.69,189.43C478.61,192.27,482.35,185.76,478.48,182.95Z" transform="matrix(1 0 0 1 -95.73 -53.44)" fill="rgb(248,139,178)" stroke="none" stroke-width="1"/><path id="ehoAT9ZUmn85" d="M320.17,134.09C336.34,89.34,381.79,58.16,429.53,60.72C454.052081,62.132174,477.472227,71.383149,496.34,87.11C512.58,100.75,527.17,120.51,528.48,142.39C529.74,163.39,517.31,187.08,494.11,188.04C489.3,188.24,489.28,195.74,494.11,195.54C516.4,194.62,532.11,176.01,535.33,154.95C538.88,131.95,528.04,109.47,512.92,92.68C476.66,52.39,415.23,41.4,367.78,67.79C342.370814,81.948858,322.902346,104.77506,312.93,132.1C311.29,136.65,318.53,138.61,320.17,134.1Z" transform="matrix(1 0 0 1 -95.73 -53.44)" fill="rgb(248,139,178)" stroke="none" stroke-width="1"/></g><g id="ehoAT9ZUmn86"><path id="ehoAT9ZUmn87" d="M343.55,192.37C346.489927,183.366126,355.723558,178.006746,365,179.92C374.8,181.92,382.46,189.53,390.36,195.08C402.36,203.52,421.27,208.53,430.84,193.78C433.48,189.72,426.99,185.95,424.37,189.99C419.12,198.08,407.97,196.5,400.61,192.66C391.73,188.04,384.76,180.49,375.81,175.98C360.46,168.24,342.09,173.16,336.36,190.38C334.84,194.97,342.08,196.94,343.6,192.38Z" transform="matrix(1 0 0 1 -95.73 -53.44)" fill="rgb(248,139,178)" stroke="none" stroke-width="1"/><path id="ehoAT9ZUmn88" d="M274,317.32C259.84,325.11,253.44,341.18,255.39,356.85C257.39,373.25,268.22,386.92,282.11,395.3C298.57,405.23,318.23,407.98,337.11,408.62C358.626936,409.199386,380.144503,407.48978,401.3,403.52C425.50681,399.117551,449.19768,392.241503,472,383C476.41,381.22,474.48,374,470,375.77C434.44,390.12,396.41,399.27,358,400.98C326.78,402.38,282.36,400.92,266.39,368.39C258.86,353.05,261.86,332.49,277.68,323.8C281.91,321.47,278.13,315,273.89,317.32Z" transform="matrix(1 0 0 1 -95.73 -53.44)" fill="rgb(248,139,178)" stroke="none" stroke-width="1"/><path id="ehoAT9ZUmn89" d="M246.28,320.83C254.93,329.38,269.11,330.68,278.9,323.23C282.7,320.35,278.96,313.83,275.12,316.76C268.078846,322.327856,257.997222,321.796793,251.58,315.52C248.14,312.13,242.84,317.43,246.28,320.83Z" transform="matrix(1 0 0 1 -95.73 -53.44)" fill="rgb(248,139,178)" stroke="none" stroke-width="1"/><path id="ehoAT9ZUmn810" d="M333,169.46C339.67,153.85,357.55,145.14,373.91,150.06C378.55,151.45,380.53,144.21,375.91,142.82C356.64,137.04,334.47,147.08,326.52,165.68C324.65,170.07,331.11,173.89,333,169.46Z" transform="matrix(1 0 0 1 -95.73 -53.44)" fill="rgb(248,139,178)" stroke="none" stroke-width="1"/><path id="ehoAT9ZUmn811" d="M472,383.24C492.57,372.24,512.39,356.09,518.35,332.47C523.49,312.1,515.22,288.79,495.06,280.22C490.66,278.35,486.84,284.81,491.27,286.7C509.71,294.53,516.03,315.45,510.21,333.7C503.77,353.84,486.12,367.2,468.21,376.79C463.95,379.07,467.73,385.55,471.99,383.27Z" transform="matrix(1 0 0 1 -95.73 -53.44)" fill="rgb(248,139,178)" stroke="none" stroke-width="1"/><path id="ehoAT9ZUmn812" d="M402.31,173.66C406.88399,185.612279,418.332525,193.525353,431.13,193.58C435.95,193.58,435.96,186.1,431.13,186.08C421.671512,186.107869,413.137208,180.407792,409.54,171.66C407.79,167.23,400.54,169.16,402.31,173.66Z" transform="matrix(1 0 0 1 -95.73 -53.44)" fill="rgb(248,139,178)" stroke="none" stroke-width="1"/><path id="ehoAT9ZUmn813" d="M466.09,214.51C477.52,219.04,480.25,234.99,480.45,245.74C480.648655,258.692957,476.891462,271.398338,469.68,282.16C467,286.16,473.5,289.96,476.15,285.95C484.986442,272.665596,489.054811,256.776396,487.69,240.88C486.44,227.45,481.63,212.65,468.08,207.28C463.59,205.5,461.65,212.75,466.08,214.51Z" transform="matrix(1 0 0 1 -95.73 -53.44)" fill="rgb(248,139,178)" stroke="none" stroke-width="1"/><path id="ehoAT9ZUmn814" d="M476.05,291C491.676339,288.218939,504.719978,277.487598,510.46,262.69C512.24,258.2,504.99,256.25,503.22,260.69C498.182997,272.935026,487.135409,281.675351,474.06,283.76C469.31,284.57,471.32,291.76,476.06,291Z" transform="matrix(1 0 0 1 -95.73 -53.44)" fill="rgb(248,139,178)" stroke="none" stroke-width="1"/><path id="ehoAT9ZUmn815" d="M310.73,196.36C307.6,211.36,293.68,219.24,281.73,226.82C270,234.29,259.92,243,254.38,256C244.18,280.12,253.08,307.76,274.57,322.32C278.57,325.04,282.34,318.54,278.36,315.85C268.025152,308.808786,260.914745,297.946602,258.596194,285.657904C256.277642,273.369206,258.941303,260.662915,266,250.34C280.15,229.77,312.31,225.54,318,198.34C319,193.63,311.76,191.61,310.77,196.34Z" transform="matrix(1 0 0 1 -95.73 -53.44)" fill="rgb(248,139,178)" stroke="none" stroke-width="1"/></g><g id="ehoAT9ZUmn816"><g id="ehoAT9ZUmn817" clip-path="url(#ehoAT9ZUmn819)"><path id="ehoAT9ZUmn818" d="M327.35,257.87C317.97,250.48,307.42,258.87,305.35,268.87C303.17,279.63,302.6,295.27,311.35,303.38C319.74,311.18,331.7,308.74,336.15,298.25C341.15,286.44,338.21,271.93,331.97,261.2C329.55,257.03,323.06,260.8,325.5,264.99C329.860853,272.258612,331.728864,280.752442,330.82,289.18C330.04,295.7,325.76,304.07,318.12,299.18C311.47,295,311.7,286,312,279C312.14,275.4,312.1,271.4,313.42,268C314.55,265.06,318.54,260.37,322.1,263.18C325.85,266.13,331.19,260.86,327.4,257.87Z" transform="matrix(1 0 0 1 -95.73 -53.44)" fill="rgb(248,139,178)" stroke="none" stroke-width="1"/><clipPath id="ehoAT9ZUmn819" transform="matrix(1 0 0 1 -0.000035 -1.260068)"><path id="ehoAT9ZUmn820" d="M0,0L37.4,0L37.4,60.14L0,60.14L0,0Z" transform="matrix(1 0 0 1.008051 208.251484 200.370199)" fill="rgb(210,219,237)" stroke="none" stroke-width="0"/></clipPath></g><g id="ehoAT9ZUmn821" clip-path="url(#ehoAT9ZUmn823)"><path id="ehoAT9ZUmn822" d="M428.74,240.64C417.43,236.25,408.227643,247.440001,406.467643,257.75C404.707643,268.06,405.45,281.36,414.48,288.18C423.51,295,434.71,291.04,438.34,280.6C442.34,269.17,438.977643,256.220001,433.927643,245.740001C431.837643,241.39,425.367643,245.190001,427.447643,249.520001C431.017643,256.93,432.97,264.62,432.33,272.88C431.77,279.65,427.12,287.88,419.47,282.55C409.87,275.92,410.697643,242.35,426.907643,248.67C431.407643,250.42,433.357643,243.17,428.907643,241.440001Z" transform="matrix(1 0 0 1 -95.73 -53.44)" fill="rgb(248,139,178)" stroke="none" stroke-width="1"/><clipPath id="ehoAT9ZUmn823" transform="matrix(0.996661 0 0 1.004625 0 -1.025132)"><path id="ehoAT9ZUmn824" d="M-1.000962,-3.88993L40.22,-3.88993L40.22,47.175412L-1.000962,47.175412L-1.000962,-3.88993Z" transform="matrix(1 0 0 0.999999 306.58 190.948479)" fill="rgb(210,219,237)" stroke="none" stroke-width="0"/></clipPath></g><path id="ehoAT9ZUmn825" d="M297.32,273C298.67,258,310.63,244.57,326.61,248.5C331.3,249.66,333.3,242.42,328.61,241.27C307.61,236.1,291.61,253.12,289.83,273C289.4,277.8,296.9,277.77,297.33,273Z" transform="matrix(1 0 0 1 -95.73 -53.44)" fill="rgb(248,139,178)" stroke="none" stroke-width="1"/><path id="ehoAT9ZUmn826" d="M410.09,234.83C416.796248,231.782793,424.47352,231.689981,431.251474,234.574176C438.029427,237.458371,443.285789,243.05478,445.74,250C447.39,254.5,454.64,252.56,452.98,248C445.91,228.73,425.05,219.8,406.3,228.38C401.92,230.38,405.73,236.86,410.09,234.86Z" transform="matrix(1 0 0 1 -95.73 -53.44)" fill="rgb(248,139,178)" stroke="none" stroke-width="1"/><path id="ehoAT9ZUmn827" d="M354.68,343C372.39,360.82,402.49,356.47,414.09,334.06C416.3,329.78,409.83,325.98,407.61,330.28C403.299783,338.808119,395.141329,344.734159,385.69834,346.195928C376.255352,347.657697,366.686989,344.475758,360,337.65C356.59,334.22,351.29,339.52,354.69,342.95Z" transform="matrix(1 0 0 1 -95.73 -53.44)" fill="rgb(248,139,178)" stroke="none" stroke-width="1"/><path id="ehoAT9ZUmn828" d="M304.11,281.3L289.11,283.08C284.38,283.64,284.32,291.15,289.11,290.58L304.11,288.8C308.84,288.24,308.9,280.73,304.11,281.3Z" transform="matrix(1 0 0 1 -95.73 -53.44)" fill="rgb(248,139,178)" stroke="none" stroke-width="1"/><path id="ehoAT9ZUmn829" d="M305.07,292.79L292,299.08C287.65,301.17,291.45,307.64,295.78,305.55L308.87,299.26C313.21,297.17,309.42,290.7,305.08,292.79Z" transform="matrix(1 0 0 1 -95.73 -53.44)" fill="rgb(248,139,178)" stroke="none" stroke-width="1"/><path id="ehoAT9ZUmn830" d="M436.87,267.44C444.045976,269.614789,451.744563,269.315438,458.73,266.59C463.18,264.85,461.24,257.59,456.73,259.36C451.04473,261.691403,444.728805,261.988125,438.85,260.2C434.21,258.83,432.23,266.06,436.85,267.44Z" transform="matrix(1 0 0 1 -95.73 -53.44)" fill="rgb(248,139,178)" stroke="none" stroke-width="1"/><path id="ehoAT9ZUmn831" d="M322.07,328.54C314.86,327.22,306.91,328.09,301.07,332.54C295.23,336.99,292.22,345.41,295.45,351.96C298.13,357.41,304.45,360.43,310.52,360.62C318.6,360.86,326.98,356.13,329.71,348.54C332.44,340.95,328.09,331.24,320.24,329.29" transform="matrix(1 0 0 1 -95.73 -53.44)" fill="rgb(248,139,178)" stroke="none" stroke-width="1"/><path id="ehoAT9ZUmn832" d="M323.06,324.93C311.06,323,297.33,325.99,292.06,338.23C287.39,349.12,293.46,360.23,304.62,363.43C315.37,366.49,328.31,361.37,332.77,350.82C337,340.82,331.61,328.82,321.23,325.64C316.6,324.22,314.63,331.46,319.23,332.87C325.92,334.93,328.62,343.24,325.23,349.18C321.69,355.44,313.29,358.18,306.58,356.18C298.93,353.95,295.58,346.51,299.71,339.52C303.99,332.24,313.37,330.91,321.02,332.14C325.74,332.9,327.77,325.67,323.02,324.91Z" transform="matrix(1 0 0 1 -95.73 -53.44)" fill="rgb(248,139,178)" stroke="none" stroke-width="1"/><path id="ehoAT9ZUmn833" d="M470.42,311C465.065982,307.08604,458.011391,306.380862,451.98857,309.15759C445.965749,311.934318,441.920651,317.756836,441.42,324.37C441.016021,329.713869,443.16755,334.93318,447.22,338.44C452.55,342.86,460.75,343.13,466.7,339.59C472.65,336.05,476.26,329.14,476.42,322.24C476.5,318.13,475.24,313.67,471.86,311.32" transform="matrix(1 0 0 1 -95.73 -53.44)" fill="rgb(248,139,178)" stroke="none" stroke-width="1"/><path id="ehoAT9ZUmn834" d="M472.32,307.75C462.78,301.39,449.8,302.91,442.53,311.97C435.64,320.54,436,333.7,444.53,341.08C453.06,348.46,466.53,346.64,473.82,338.45C480.73,330.67,483.44,315.99,474.47,308.66C470.77,305.66,465.47,310.9,469.17,313.96C481.75,324.26,461.17,347.32,448.77,334.81C443.59,329.58,444.21,321.06,449.02,315.81C454.24,310.14,462.37,310.09,468.51,314.19C472.51,316.88,476.3,310.38,472.3,307.71Z" transform="matrix(1 0 0 1 -95.73 -53.44)" fill="rgb(248,139,178)" stroke="none" stroke-width="1"/><path id="ehoAT9ZUmn835" d="M436.6,280.07L454,284.93C458.66,286.22,460.64,278.99,456,277.69L438.57,272.84C438.57,272.84,431.93,278.78,436.57,280.07Z" transform="matrix(1 0 0 1 -95.73 -53.44)" fill="rgb(248,139,178)" stroke="none" stroke-width="1"/><path id="ehoAT9ZUmn836" d="M345.07,246.28C352.717376,257.609926,357.182795,270.785156,358,284.43C358.65,296.77,354.72,309.7,359.81,321.51C363.695269,330.954514,373.68826,336.362682,383.72,334.45C393.84,332.45,400.57,322.87,400.28,312.79C400.15,307.98,392.65,307.96,392.78,312.79C393.06,322.38,384.32,329.89,374.88,326.56C363.93,322.71,364.27,308.99,364.98,299.56C366.52,279.12,363.06,259.85,351.58,242.56C348.93,238.56,342.43,242.31,345.11,246.35Z" transform="matrix(1 0 0 1 -95.73 -53.44)" fill="rgb(248,139,178)" stroke="none" stroke-width="1"/><path id="ehoAT9ZUmn837" d="M414.77,317.47L414.77,316.79C414.77,314.718932,413.091068,313.04,411.02,313.04C408.948932,313.04,407.27,314.718932,407.27,316.79L407.27,317.47C407.27,319.541068,408.948932,321.22,411.02,321.22C413.091068,321.22,414.77,319.541068,414.77,317.47Z" transform="matrix(1 0 0 1 -95.73 -53.44)" fill="rgb(248,139,178)" stroke="none" stroke-width="1"/></g><g id="ehoAT9ZUmn838" transform="matrix(0.999671 0.025663 -0.025663 0.999671 10.88531 -11.161022)"><path id="ehoAT9ZUmn839" d="M614.16,400.92C617.08,394.45,614.85,387.51,609.51,383C603.38,377.83,594.98,377,587.41,378.69C579.49,380.43,571.6,384.35,564.83,388.69C558.62,392.69,551.66,397.69,548.83,404.83C542.47,421.16,561.72,431.18,575.28,429.74C590.942105,427.902235,604.837447,418.829917,612.82,405.23C615.28,401.06,608.82,397.28,606.35,401.44C601.119136,410.415363,592.790932,417.171805,582.93,420.44C577.57,422.21,571.65,423.3,566.09,421.86C560.87,420.5,554.65,416.04,555.18,409.97C555.65,404.65,561.12,400.5,565.07,397.61C569.440516,394.41661,574.132641,391.688475,579.07,389.47C584.43,387.08,590.58,384.76,596.55,385.47C601.47,386.03,610.47,390.78,607.6,397.15C605.6,401.52,612.09,405.33,614.07,400.94Z" transform="matrix(1 0 0 1 -95.73 -53.44)" fill="rgb(248,139,178)" stroke="none" stroke-width="1"/><path id="ehoAT9ZUmn840" d="M558.08,421.11C547.29,423.68,543.62,435.57,549.81,444.45C556.65,454.24,569.17,453.22,579.51,451.37C590.85,449.37,603.42,445.87,610.8,436.32C617.711071,427.561406,618.195549,415.348526,612,406.07C609.3,402.07,602.79,405.85,605.53,409.85C609.925477,416.055129,609.997273,424.339623,605.71,430.62C601.24,437.37,593.03,440.51,585.52,442.44C578.66,444.19,570.27,446.36,563.2,444.74C555.34,442.93,549.29,430.91,560.07,428.34C564.77,427.22,562.78,419.99,558.07,421.11Z" transform="matrix(1 0 0 1 -95.73 -53.44)" fill="rgb(248,139,178)" stroke="none" stroke-width="1"/><path id="ehoAT9ZUmn841" d="M528.11,375.13C512.66,375.06,503.98,390.59,512.04,403.84C520.62,417.93,537.76,420.42,552.76,421.63C557.57,422.02,557.55,414.52,552.76,414.13C542.23,413.28,530.76,412.21,522.53,404.78C518.98,401.56,516.04,397.18,516.4,392.19C516.85,385.83,522.16,382.6,528.11,382.63C532.94,382.63,532.95,375.15,528.11,375.13Z" transform="matrix(1 0 0 1 -95.73 -53.44)" fill="rgb(248,139,178)" stroke="none" stroke-width="1"/><path id="ehoAT9ZUmn842" d="M528.86,382.24L563.86,394.61C568.42,396.22,570.38,388.98,565.86,387.38L530.86,375.01C526.3,373.4,524.34,380.64,528.86,382.24Z" transform="matrix(1 0 0 1 -95.73 -53.44)" fill="rgb(248,139,178)" stroke="none" stroke-width="1"/><path id="ehoAT9ZUmn843" d="M509.9,396C500.22,406.37,490.52,419.67,497.21,434.39C502.92,446.97,518.12,454.17,529.56,460.5C542.79,467.83,558.04,474.1,573.45,471.25C586.09,468.92,596.45,458.59,595.9,445.3C595.71,440.49,588.21,440.46,588.4,445.3C588.87,457.22,578.25,463.96,567.4,464.43C554.67,464.98,542.59,459.24,531.79,453.12C522.85,448.06,511.29,442.69,505.49,433.83C497.62,421.83,507.18,409.95,515.26,401.3C518.55,397.78,513.26,392.47,509.95,396Z" transform="matrix(1 0 0 1 -95.73 -53.44)" fill="rgb(248,139,178)" stroke="none" stroke-width="1"/><path id="ehoAT9ZUmn844" d="M532.37,377.28C531.947688,363.09821,532.411926,348.903888,533.76,334.78Q534.81,323.92,536.65,313.17C537.58,307.68,537.91,299.41,541.99,295.17C547.63,289.28,555.22,295.53,557.45,301.4C559.93,307.93,558.12,316.09,557.53,322.82Q555.68,344.08,553.83,365.32C553.41,370.13,560.91,370.1,561.33,365.32C562.89,347.42,565.11,329.43,565.98,311.48C566.34,304.16,564.98,296.9,559.91,291.34C555.61,286.65,549.16,284.05,542.91,285.99C536.83,287.88,533.42,293.45,531.8,299.28C529.62,307.09,528.64,315.41,527.58,323.43C525.25127,341.28651,524.348415,359.300129,524.88,377.3C525.02,382.11,532.52,382.13,532.38,377.3Z" transform="matrix(1 0 0 1 -95.73 -53.44)" fill="rgb(248,139,178)" stroke="none" stroke-width="1"/><path id="ehoAT9ZUmn845" d="M557.81,372.15C570.94,369.74,574.28,357.02,578.24,346.15C580.659673,339.562553,583.752725,333.242407,587.47,327.29C591.02,321.58,595.18,315.17,600.58,311.02C606.22,306.68,615.38,307.4,617.82,315.02C619.96,321.77,614.52,329.17,611.63,334.91L589.77,378.28C587.61,382.58,594.08,386.38,596.25,382.07C604.7,365.3,613.25,348.58,621.6,331.76C624.77,325.36,627.27,318.76,624.6,311.71C622.269313,305.784947,616.864348,301.625508,610.54,300.89C595.94,298.98,586.09,314.89,579.72,325.64C575.730225,332.500767,572.453149,339.751885,569.94,347.28C567.35,354.87,564.8,363.23,555.85,364.87C551.11,365.74,553.11,372.97,557.85,372.11Z" transform="matrix(1 0 0 1 -95.73 -53.44)" fill="rgb(248,139,178)" stroke="none" stroke-width="1"/></g><script><![CDATA[!function(t,n){"object"==typeof exports&&"undefined"!=typeof module?module.exports=n():"function"==typeof define&&define.amd?define(n):((t="undefined"!=typeof globalThis?globalThis:t||self).__SVGATOR_PLAYER__=t.__SVGATOR_PLAYER__||{},t.__SVGATOR_PLAYER__["5c7f360c"]=n())}(this,(function(){"use strict";function t(t,n){var r=Object.keys(t);if(Object.getOwnPropertySymbols){var e=Object.getOwnPropertySymbols(t);n&&(e=e.filter((function(n){return Object.getOwnPropertyDescriptor(t,n).enumerable}))),r.push.apply(r,e)}return r}function n(n){for(var r=1;r<arguments.length;r++){var e=null!=arguments[r]?arguments[r]:{};r%2?t(Object(e),!0).forEach((function(t){u(n,t,e[t])})):Object.getOwnPropertyDescriptors?Object.defineProperties(n,Object.getOwnPropertyDescriptors(e)):t(Object(e)).forEach((function(t){Object.defineProperty(n,t,Object.getOwnPropertyDescriptor(e,t))}))}return n}function r(t){return(r="function"==typeof Symbol&&"symbol"==typeof Symbol.iterator?function(t){return typeof t}:function(t){return t&&"function"==typeof Symbol&&t.constructor===Symbol&&t!==Symbol.prototype?"symbol":typeof t})(t)}function e(t,n){if(!(t instanceof n))throw new TypeError("Cannot call a class as a function")}function i(t,n){for(var r=0;r<n.length;r++){var e=n[r];e.enumerable=e.enumerable||!1,e.configurable=!0,"value"in e&&(e.writable=!0),Object.defineProperty(t,e.key,e)}}function o(t,n,r){return n&&i(t.prototype,n),r&&i(t,r),t}function u(t,n,r){return n in t?Object.defineProperty(t,n,{value:r,enumerable:!0,configurable:!0,writable:!0}):t[n]=r,t}function a(t){return(a=Object.setPrototypeOf?Object.getPrototypeOf:function(t){return t.__proto__||Object.getPrototypeOf(t)})(t)}function l(t,n){return(l=Object.setPrototypeOf||function(t,n){return t.__proto__=n,t})(t,n)}function f(){if("undefined"==typeof Reflect||!Reflect.construct)return!1;if(Reflect.construct.sham)return!1;if("function"==typeof Proxy)return!0;try{return Boolean.prototype.valueOf.call(Reflect.construct(Boolean,[],(function(){}))),!0}catch(t){return!1}}function s(t,n,r){return(s=f()?Reflect.construct:function(t,n,r){var e=[null];e.push.apply(e,n);var i=new(Function.bind.apply(t,e));return r&&l(i,r.prototype),i}).apply(null,arguments)}function c(t,n){if(n&&("object"==typeof n||"function"==typeof n))return n;if(void 0!==n)throw new TypeError("Derived constructors may only return object or undefined");return function(t){if(void 0===t)throw new ReferenceError("this hasn't been initialised - super() hasn't been called");return t}(t)}function h(t,n,r){return(h="undefined"!=typeof Reflect&&Reflect.get?Reflect.get:function(t,n,r){var e=function(t,n){for(;!Object.prototype.hasOwnProperty.call(t,n)&&null!==(t=a(t)););return t}(t,n);if(e){var i=Object.getOwnPropertyDescriptor(e,n);return i.get?i.get.call(r):i.value}})(t,n,r||t)}function v(t){return function(t){if(Array.isArray(t))return y(t)}(t)||function(t){if("undefined"!=typeof Symbol&&null!=t[Symbol.iterator]||null!=t["@@iterator"])return Array.from(t)}(t)||function(t,n){if(!t)return;if("string"==typeof t)return y(t,n);var r=Object.prototype.toString.call(t).slice(8,-1);"Object"===r&&t.constructor&&(r=t.constructor.name);if("Map"===r||"Set"===r)return Array.from(t);if("Arguments"===r||/^(?:Ui|I)nt(?:8|16|32)(?:Clamped)?Array$/.test(r))return y(t,n)}(t)||function(){throw new TypeError("Invalid attempt to spread non-iterable instance.\nIn order to be iterable, non-array objects must have a [Symbol.iterator]() method.")}()}function y(t,n){(null==n||n>t.length)&&(n=t.length);for(var r=0,e=new Array(n);r<n;r++)e[r]=t[r];return e}var g=d(Math.pow(10,-6));function d(t){var n=arguments.length>1&&void 0!==arguments[1]?arguments[1]:6;if(Number.isInteger(t))return t;var r=Math.pow(10,n);return Math.round((+t+Number.EPSILON)*r)/r}function p(t,n){var r=arguments.length>2&&void 0!==arguments[2]?arguments[2]:g;return Math.abs(t-n)<r}var m=Math.PI/180;function b(t){return t}function w(t,n,r){var e=1-r;return 3*r*e*(t*e+n*r)+r*r*r}function x(){var t=arguments.length>0&&void 0!==arguments[0]?arguments[0]:0,n=arguments.length>1&&void 0!==arguments[1]?arguments[1]:0,r=arguments.length>2&&void 0!==arguments[2]?arguments[2]:1,e=arguments.length>3&&void 0!==arguments[3]?arguments[3]:1;return t<0||t>1||r<0||r>1?null:p(t,n)&&p(r,e)?b:function(i){if(i<=0)return t>0?i*n/t:0===n&&r>0?i*e/r:0;if(i>=1)return r<1?1+(i-1)*(e-1)/(r-1):1===r&&t<1?1+(i-1)*(n-1)/(t-1):1;for(var o,u=0,a=1;u<a;){var l=w(t,r,o=(u+a)/2);if(p(i,l))break;l<i?u=o:a=o}return w(n,e,o)}}function A(){return 1}function k(t){return 1===t?1:0}function S(){var t=arguments.length>0&&void 0!==arguments[0]?arguments[0]:1,n=arguments.length>1&&void 0!==arguments[1]?arguments[1]:0;if(1===t){if(0===n)return k;if(1===n)return A}var r=1/t;return function(t){return t>=1?1:(t+=n*r)-t%r}}var _=Math.sin,O=Math.cos,j=Math.acos,M=Math.asin,P=Math.tan,E=Math.atan2,I=Math.PI/180,R=180/Math.PI,F=Math.sqrt,N=function(){function t(){var n=arguments.length>0&&void 0!==arguments[0]?arguments[0]:1,r=arguments.length>1&&void 0!==arguments[1]?arguments[1]:0,i=arguments.length>2&&void 0!==arguments[2]?arguments[2]:0,o=arguments.length>3&&void 0!==arguments[3]?arguments[3]:1,u=arguments.length>4&&void 0!==arguments[4]?arguments[4]:0,a=arguments.length>5&&void 0!==arguments[5]?arguments[5]:0;e(this,t),this.m=[n,r,i,o,u,a],this.i=null,this.w=null,this.s=null}return o(t,[{key:"determinant",get:function(){var t=this.m;return t[0]*t[3]-t[1]*t[2]}},{key:"isIdentity",get:function(){if(null===this.i){var t=this.m;this.i=1===t[0]&&0===t[1]&&0===t[2]&&1===t[3]&&0===t[4]&&0===t[5]}return this.i}},{key:"point",value:function(t,n){var r=this.m;return{x:r[0]*t+r[2]*n+r[4],y:r[1]*t+r[3]*n+r[5]}}},{key:"translateSelf",value:function(){var t=arguments.length>0&&void 0!==arguments[0]?arguments[0]:0,n=arguments.length>1&&void 0!==arguments[1]?arguments[1]:0;if(!t&&!n)return this;var r=this.m;return r[4]+=r[0]*t+r[2]*n,r[5]+=r[1]*t+r[3]*n,this.w=this.s=this.i=null,this}},{key:"rotateSelf",value:function(){var t=arguments.length>0&&void 0!==arguments[0]?arguments[0]:0;if(t%=360){var n=_(t*=I),r=O(t),e=this.m,i=e[0],o=e[1];e[0]=i*r+e[2]*n,e[1]=o*r+e[3]*n,e[2]=e[2]*r-i*n,e[3]=e[3]*r-o*n,this.w=this.s=this.i=null}return this}},{key:"scaleSelf",value:function(){var t=arguments.length>0&&void 0!==arguments[0]?arguments[0]:1,n=arguments.length>1&&void 0!==arguments[1]?arguments[1]:1;if(1!==t||1!==n){var r=this.m;r[0]*=t,r[1]*=t,r[2]*=n,r[3]*=n,this.w=this.s=this.i=null}return this}},{key:"skewSelf",value:function(t,n){if(n%=360,(t%=360)||n){var r=this.m,e=r[0],i=r[1],o=r[2],u=r[3];t&&(t=P(t*I),r[2]+=e*t,r[3]+=i*t),n&&(n=P(n*I),r[0]+=o*n,r[1]+=u*n),this.w=this.s=this.i=null}return this}},{key:"resetSelf",value:function(){var t=arguments.length>0&&void 0!==arguments[0]?arguments[0]:1,n=arguments.length>1&&void 0!==arguments[1]?arguments[1]:0,r=arguments.length>2&&void 0!==arguments[2]?arguments[2]:0,e=arguments.length>3&&void 0!==arguments[3]?arguments[3]:1,i=arguments.length>4&&void 0!==arguments[4]?arguments[4]:0,o=arguments.length>5&&void 0!==arguments[5]?arguments[5]:0,u=this.m;return u[0]=t,u[1]=n,u[2]=r,u[3]=e,u[4]=i,u[5]=o,this.w=this.s=this.i=null,this}},{key:"recomposeSelf",value:function(){var t=arguments.length>0&&void 0!==arguments[0]?arguments[0]:null,n=arguments.length>1&&void 0!==arguments[1]?arguments[1]:null,r=arguments.length>2&&void 0!==arguments[2]?arguments[2]:null,e=arguments.length>3&&void 0!==arguments[3]?arguments[3]:null,i=arguments.length>4&&void 0!==arguments[4]?arguments[4]:null;return this.isIdentity||this.resetSelf(),t&&(t.x||t.y)&&this.translateSelf(t.x,t.y),n&&this.rotateSelf(n),r&&(r.x&&this.skewSelf(r.x,0),r.y&&this.skewSelf(0,r.y)),!e||1===e.x&&1===e.y||this.scaleSelf(e.x,e.y),i&&(i.x||i.y)&&this.translateSelf(i.x,i.y),this}},{key:"decompose",value:function(){var t=arguments.length>0&&void 0!==arguments[0]?arguments[0]:0,n=arguments.length>1&&void 0!==arguments[1]?arguments[1]:0,r=this.m,e=r[0]*r[0]+r[1]*r[1],i=[[r[0],r[1]],[r[2],r[3]]],o=F(e);if(0===o)return{origin:{x:d(r[4]),y:d(r[5])},translate:{x:d(t),y:d(n)},scale:{x:0,y:0},skew:{x:0,y:0},rotate:0};i[0][0]/=o,i[0][1]/=o;var u=r[0]*r[3]-r[1]*r[2]<0;u&&(o=-o);var a=i[0][0]*i[1][0]+i[0][1]*i[1][1];i[1][0]-=i[0][0]*a,i[1][1]-=i[0][1]*a;var l=F(i[1][0]*i[1][0]+i[1][1]*i[1][1]);if(0===l)return{origin:{x:d(r[4]),y:d(r[5])},translate:{x:d(t),y:d(n)},scale:{x:d(o),y:0},skew:{x:0,y:0},rotate:0};i[1][0]/=l,i[1][1]/=l,a/=l;var f=0;return i[1][1]<0?(f=j(i[1][1])*R,i[0][1]<0&&(f=360-f)):f=M(i[0][1])*R,u&&(f=-f),a=E(a,F(i[0][0]*i[0][0]+i[0][1]*i[0][1]))*R,u&&(a=-a),{origin:{x:d(r[4]),y:d(r[5])},translate:{x:d(t),y:d(n)},scale:{x:d(o),y:d(l)},skew:{x:d(a),y:0},rotate:d(f)}}},{key:"clone",value:function(){var t=this.m;return new this.constructor(t[0],t[1],t[2],t[3],t[4],t[5])}},{key:"toString",value:function(){var t=arguments.length>0&&void 0!==arguments[0]?arguments[0]:" ";return null===this.s&&(this.s="matrix("+this.m.map((function(t){return d(t)})).join(t)+")"),this.s}}],[{key:"create",value:function(t){return t?Array.isArray(t)?s(this,v(t)):t instanceof this?t.clone():(new this).recomposeSelf(t.origin,t.rotate,t.skew,t.scale,t.translate):new this}}]),t}();function T(t,n,r){return t>=.5?r:n}function B(t,n,r){return 0===t||n===r?n:t*(r-n)+n}function q(t,n,r){var e=B(t,n,r);return e<=0?0:e}function L(t,n,r){var e=B(t,n,r);return e<=0?0:e>=1?1:e}function C(t,n,r){return 0===t?n:1===t?r:{x:B(t,n.x,r.x),y:B(t,n.y,r.y)}}function D(t,n,r){var e=function(t,n,r){return Math.round(B(t,n,r))}(t,n,r);return e<=0?0:e>=255?255:e}function z(t,n,r){return 0===t?n:1===t?r:{r:D(t,n.r,r.r),g:D(t,n.g,r.g),b:D(t,n.b,r.b),a:B(t,null==n.a?1:n.a,null==r.a?1:r.a)}}function V(t,n){for(var r=[],e=0;e<t;e++)r.push(n);return r}function G(t,n){if(--n<=0)return t;var r=(t=Object.assign([],t)).length;do{for(var e=0;e<r;e++)t.push(t[e])}while(--n>0);return t}var Y,$=function(){function t(n){e(this,t),this.list=n,this.length=n.length}return o(t,[{key:"setAttribute",value:function(t,n){for(var r=this.list,e=0;e<this.length;e++)r[e].setAttribute(t,n)}},{key:"removeAttribute",value:function(t){for(var n=this.list,r=0;r<this.length;r++)n[r].removeAttribute(t)}},{key:"style",value:function(t,n){for(var r=this.list,e=0;e<this.length;e++)r[e].style[t]=n}}]),t}(),U=/-./g,Q=function(t,n){return n.toUpperCase()};function H(t){return"function"==typeof t?t:T}function J(t){return t?"function"==typeof t?t:Array.isArray(t)?function(t){var n=arguments.length>1&&void 0!==arguments[1]?arguments[1]:b;if(!Array.isArray(t))return n;switch(t.length){case 1:return S(t[0])||n;case 2:return S(t[0],t[1])||n;case 4:return x(t[0],t[1],t[2],t[3])||n}return n}(t,null):function(t,n){var r=arguments.length>2&&void 0!==arguments[2]?arguments[2]:b;switch(t){case"linear":return b;case"steps":return S(n.steps||1,n.jump||0)||r;case"bezier":case"cubic-bezier":return x(n.x1||0,n.y1||0,n.x2||0,n.y2||0)||r}return r}(t.type,t.value,null):null}function Z(t,n,r){var e=arguments.length>3&&void 0!==arguments[3]&&arguments[3],i=n.length-1;if(t<=n[0].t)return e?[0,0,n[0].v]:n[0].v;if(t>=n[i].t)return e?[i,1,n[i].v]:n[i].v;var o,u=n[0],a=null;for(o=1;o<=i;o++){if(!(t>n[o].t)){a=n[o];break}u=n[o]}return null==a?e?[i,1,n[i].v]:n[i].v:u.t===a.t?e?[o,1,a.v]:a.v:(t=(t-u.t)/(a.t-u.t),u.e&&(t=u.e(t)),e?[o,t,r(t,u.v,a.v)]:r(t,u.v,a.v))}function K(t,n){var r=arguments.length>2&&void 0!==arguments[2]?arguments[2]:null;return t&&t.length?"function"!=typeof n?null:("function"!=typeof r&&(r=null),function(e){var i=Z(e,t,n);return null!=i&&r&&(i=r(i)),i}):null}function W(t,n){return t.t-n.t}function X(t,n,e,i,o){var u,a="@"===e[0],l="#"===e[0],f=Y[e],s=T;switch(a?(u=e.substr(1),e=u.replace(U,Q)):l&&(e=e.substr(1)),r(f)){case"function":if(s=f(i,o,Z,J,e,a,n,t),l)return s;break;case"string":s=K(i,H(f));break;case"object":if((s=K(i,H(f.i),f.f))&&"function"==typeof f.u)return f.u(n,s,e,a,t)}return s?function(t,n,r){if(arguments.length>3&&void 0!==arguments[3]&&arguments[3])return t instanceof $?function(e){return t.style(n,r(e))}:function(e){return t.style[n]=r(e)};if(Array.isArray(n)){var e=n.length;return function(i){var o=r(i);if(null==o)for(var u=0;u<e;u++)t[u].removeAttribute(n);else for(var a=0;a<e;a++)t[a].setAttribute(n,o)}}return function(e){var i=r(e);null==i?t.removeAttribute(n):t.setAttribute(n,i)}}(n,e,s,a):null}function tt(t,n,e,i){if(!i||"object"!==r(i))return null;var o=null,u=null;return Array.isArray(i)?u=function(t){if(!t||!t.length)return null;for(var n=0;n<t.length;n++)t[n].e&&(t[n].e=J(t[n].e));return t.sort(W)}(i):(u=i.keys,o=i.data||null),u?X(t,n,e,u,o):null}function nt(t,n,r){if(!r)return null;var e=[];for(var i in r)if(r.hasOwnProperty(i)){var o=tt(t,n,i,r[i]);o&&e.push(o)}return e.length?e:null}function rt(t,n){if(!n.duration||n.duration<0)return null;var r=function(t,n){if(!n)return null;var r=[];if(Array.isArray(n))for(var e=n.length,i=0;i<e;i++){var o=n[i];if(2===o.length){var u=null;if("string"==typeof o[0])u=t.getElementById(o[0]);else if(Array.isArray(o[0])){u=[];for(var a=0;a<o[0].length;a++)if("string"==typeof o[0][a]){var l=t.getElementById(o[0][a]);l&&u.push(l)}u=u.length?1===u.length?u[0]:new $(u):null}if(u){var f=nt(t,u,o[1]);f&&(r=r.concat(f))}}}else for(var s in n)if(n.hasOwnProperty(s)){var c=t.getElementById(s);if(c){var h=nt(t,c,n[s]);h&&(r=r.concat(h))}}return r.length?r:null}(t,n.elements);return r?function(t,n){var r=arguments.length>2&&void 0!==arguments[2]?arguments[2]:1/0,e=arguments.length>3&&void 0!==arguments[3]?arguments[3]:1,i=arguments.length>4&&void 0!==arguments[4]&&arguments[4],o=arguments.length>5&&void 0!==arguments[5]?arguments[5]:1,u=t.length,a=e>0?n:0;i&&r%2==0&&(a=n-a);var l=null;return function(f,s){var c=f%n,h=1+(f-c)/n;s*=e,i&&h%2==0&&(s=-s);var v=!1;if(h>r)c=a,v=!0,-1===o&&(c=e>0?0:n);else if(s<0&&(c=n-c),c===l)return!1;l=c;for(var y=0;y<u;y++)t[y](c);return v}}(r,n.duration,n.iterations||1/0,n.direction||1,!!n.alternate,n.fill||1):null}function et(t){return+("0x"+(t.replace(/[^0-9a-fA-F]+/g,"")||27))}function it(t,n,r){return!t||!r||n>t.length?t:t.substring(0,n)+it(t.substring(n+1),r,r)}function ot(t){var n=arguments.length>1&&void 0!==arguments[1]?arguments[1]:27;return!t||t%n?t%n:ot(t/n,n)}function ut(t,n,r){if(t&&t.length){var e=et(r),i=et(n),o=ot(e)+5,u=it(t,ot(e,5),o);return u=u.replace(/\x7c$/g,"==").replace(/\x2f$/g,"="),u=function(t,n,r){var e=+("0x"+t.substring(0,4));t=t.substring(4);for(var i=n%e+r%27,o=[],u=0;u<t.length;u+=2)if("|"!==t[u]){var a=+("0x"+t[u]+t[u+1])-i;o.push(a)}else{var l=+("0x"+t.substring(u+1,u+1+4))-i;u+=3,o.push(l)}return String.fromCharCode.apply(String,o)}(u=(u=atob(u)).replace(/[\x41-\x5A]/g,""),i,e),u=JSON.parse(u)}}Number.isInteger||(Number.isInteger=function(t){return"number"==typeof t&&isFinite(t)&&Math.floor(t)===t}),Number.EPSILON||(Number.EPSILON=2220446049250313e-31);var at=function(){function t(n,r){var i=arguments.length>2&&void 0!==arguments[2]?arguments[2]:{};e(this,t),this._id=0,this._running=!1,this._rollingBack=!1,this._animations=n,this.duration=r.duration,this.alternate=r.alternate,this.fill=r.fill,this.iterations=r.iterations,this.direction=i.direction||1,this.speed=i.speed||1,this.fps=i.fps||100,this.offset=i.offset||0,this.rollbackStartOffset=0}return o(t,[{key:"_rollback",value:function(){var t=this,n=1/0,r=null;this.rollbackStartOffset=this.offset,this._rollingBack||(this._rollingBack=!0,this._running=!0);this._id=window.requestAnimationFrame((function e(i){if(t._rollingBack){null==r&&(r=i);var o=i-r,u=t.rollbackStartOffset-o,a=Math.round(u*t.speed);if(a>t.duration&&n!=1/0){var l=!!t.alternate&&a/t.duration%2>1,f=a%t.duration;a=(f+=l?t.duration:0)||t.duration}var s=t.fps?1e3/t.fps:0,c=Math.max(0,a);if(c<n-s){t.offset=c,n=c;for(var h=t._animations,v=h.length,y=0;y<v;y++)h[y](c,t.direction)}var g=!1;if(t.iterations>0&&-1===t.fill){var d=t.iterations*t.duration,p=d==a;a=p?0:a,t.offset=p?0:t.offset,g=a>d}a>0&&t.offset>=a&&!g?t._id=window.requestAnimationFrame(e):t.stop()}}))}},{key:"_start",value:function(){var t=this,n=arguments.length>0&&void 0!==arguments[0]?arguments[0]:0,r=-1/0,e=null,i={},o=function o(u){t._running=!0,null==e&&(e=u);var a=Math.round((u-e+n)*t.speed),l=t.fps?1e3/t.fps:0;if(a>r+l&&!t._rollingBack){t.offset=a,r=a;for(var f=t._animations,s=f.length,c=0,h=0;h<s;h++)i[h]?c++:(i[h]=f[h](a,t.direction),i[h]&&c++);if(c===s)return void t._stop()}t._id=window.requestAnimationFrame(o)};this._id=window.requestAnimationFrame(o)}},{key:"_stop",value:function(){this._id&&window.cancelAnimationFrame(this._id),this._running=!1,this._rollingBack=!1}},{key:"play",value:function(){!this._rollingBack&&this._running||(this._rollingBack=!1,this.rollbackStartOffset>this.duration&&(this.offset=this.rollbackStartOffset-(this.rollbackStartOffset-this.offset)%this.duration,this.rollbackStartOffset=0),this._start(this.offset))}},{key:"stop",value:function(){this._stop(),this.offset=0,this.rollbackStartOffset=0;var t=this.direction,n=this._animations;window.requestAnimationFrame((function(){for(var r=0;r<n.length;r++)n[r](0,t)}))}},{key:"reachedToEnd",value:function(){return this.iterations>0&&this.offset>=this.iterations*this.duration}},{key:"restart",value:function(){this._stop(),this.offset=0,this._start()}},{key:"pause",value:function(){this._stop()}},{key:"reverse",value:function(){this.direction=-this.direction}}],[{key:"build",value:function(r,e){return delete r.animationSettings,r.options=ut(r.options,r.root,"5c7f360c"),r.animations.map((function(t){var e=ut(t.s,r.root,"5c7f360c");for(var i in delete t.s,r.animationSettings||(r.animationSettings=n({},e)),e)e.hasOwnProperty(i)&&(t[i]=e[i])})),(r=function(t,n){if(Y=n,!t||!t.root||!Array.isArray(t.animations))return null;for(var r=document.getElementsByTagName("svg"),e=!1,i=0;i<r.length;i++)if(r[i].id===t.root&&!r[i].svgatorAnimation){(e=r[i]).svgatorAnimation=!0;break}if(!e)return null;var o=t.animations.map((function(t){return rt(e,t)})).filter((function(t){return!!t}));return o.length?{element:e,animations:o,animationSettings:t.animationSettings,options:t.options||void 0}:null}(r,e))?{el:r.element,options:r.options||{},player:new t(r.animations,r.animationSettings,r.options)}:null}},{key:"push",value:function(t){return this.build(t)}},{key:"init",value:function(){var t=this,n=window.__SVGATOR_PLAYER__&&window.__SVGATOR_PLAYER__["5c7f360c"];Array.isArray(n)&&n.splice(0).forEach((function(n){return t.build(n)}))}}]),t}();function lt(t){return d(t)+""}function ft(t){var n=arguments.length>1&&void 0!==arguments[1]?arguments[1]:" ";return t&&t.length?t.map(lt).join(n):""}function st(t){return t?null==t.a||t.a>=1?"rgb("+t.r+","+t.g+","+t.b+")":"rgba("+t.r+","+t.g+","+t.b+","+t.a+")":"transparent"}function ct(t){return t?"url(#"+t+")":"none"}!function(){for(var t=0,n=["ms","moz","webkit","o"],r=0;r<n.length&&!window.requestAnimationFrame;++r)window.requestAnimationFrame=window[n[r]+"RequestAnimationFrame"],window.cancelAnimationFrame=window[n[r]+"CancelAnimationFrame"]||window[n[r]+"CancelRequestAnimationFrame"];window.requestAnimationFrame||(window.requestAnimationFrame=function(n){var r=Date.now(),e=Math.max(0,16-(r-t)),i=window.setTimeout((function(){n(r+e)}),e);return t=r+e,i},window.cancelAnimationFrame=window.clearTimeout)}();var ht={f:null,i:function(t,n,r){return 0===t?n:1===t?r:{x:q(t,n.x,r.x),y:q(t,n.y,r.y)}},u:function(t,n){return function(r){var e=n(r);t.setAttribute("rx",lt(e.x)),t.setAttribute("ry",lt(e.y))}}},vt={f:null,i:function(t,n,r){return 0===t?n:1===t?r:{width:q(t,n.width,r.width),height:q(t,n.height,r.height)}},u:function(t,n){return function(r){var e=n(r);t.setAttribute("width",lt(e.width)),t.setAttribute("height",lt(e.height))}}};Object.freeze({M:2,L:2,Z:0,H:1,V:1,C:6,Q:4,T:2,S:4,A:7});var yt={},gt=null;function dt(t){var n=function(){if(gt)return gt;if("object"!==("undefined"==typeof document?"undefined":r(document))||!document.createElementNS)return{};var t=document.createElementNS("http://www.w3.org/2000/svg","svg");return t&&t.style?(t.style.position="absolute",t.style.opacity="0.01",t.style.zIndex="-9999",t.style.left="-9999px",t.style.width="1px",t.style.height="1px",gt={svg:t}):{}}().svg;if(!n)return function(t){return null};var e=document.createElementNS(n.namespaceURI,"path");e.setAttributeNS(null,"d",t),e.setAttributeNS(null,"fill","none"),e.setAttributeNS(null,"stroke","none"),n.appendChild(e);var i=e.getTotalLength();return function(t){var n=e.getPointAtLength(i*t);return{x:n.x,y:n.y}}}function pt(t){return yt[t]?yt[t]:yt[t]=dt(t)}function mt(t,n,r,e){if(!t||!e)return!1;var i=["M",t.x,t.y];if(n&&r&&(i.push("C"),i.push(n.x),i.push(n.y),i.push(r.x),i.push(r.y)),n?!r:r){var o=n||r;i.push("Q"),i.push(o.x),i.push(o.y)}return n||r||i.push("L"),i.push(e.x),i.push(e.y),i.join(" ")}function bt(t,n,r,e){var i=arguments.length>4&&void 0!==arguments[4]?arguments[4]:1,o=mt(t,n,r,e),u=pt(o);try{return u(i)}catch(t){return null}}function wt(t,n,r,e){var i=1-e;return i*i*t+2*i*e*n+e*e*r}function xt(t,n,r,e){return 2*(1-e)*(n-t)+2*e*(r-n)}function At(t,n,r,e){var i=arguments.length>4&&void 0!==arguments[4]&&arguments[4],o=bt(t,n,null,r,e);return o||(o={x:wt(t.x,n.x,r.x,e),y:wt(t.y,n.y,r.y,e)}),i&&(o.a=kt(t,n,r,e)),o}function kt(t,n,r,e){return Math.atan2(xt(t.y,n.y,r.y,e),xt(t.x,n.x,r.x,e))}function St(t,n,r,e,i){var o=i*i;return i*o*(e-t+3*(n-r))+3*o*(t+r-2*n)+3*i*(n-t)+t}function _t(t,n,r,e,i){var o=1-i;return 3*(o*o*(n-t)+2*o*i*(r-n)+i*i*(e-r))}function Ot(t,n,r,e,i){var o=arguments.length>5&&void 0!==arguments[5]&&arguments[5],u=bt(t,n,r,e,i);return u||(u={x:St(t.x,n.x,r.x,e.x,i),y:St(t.y,n.y,r.y,e.y,i)}),o&&(u.a=jt(t,n,r,e,i)),u}function jt(t,n,r,e,i){return Math.atan2(_t(t.y,n.y,r.y,e.y,i),_t(t.x,n.x,r.x,e.x,i))}function Mt(t,n,r){return t+(n-t)*r}function Pt(t,n,r){var e=arguments.length>3&&void 0!==arguments[3]&&arguments[3],i={x:Mt(t.x,n.x,r),y:Mt(t.y,n.y,r)};return e&&(i.a=Et(t,n)),i}function Et(t,n){return Math.atan2(n.y-t.y,n.x-t.x)}function It(t,n,r){var e=arguments.length>3&&void 0!==arguments[3]&&arguments[3];if(Ft(n)){if(Nt(r))return At(n,r.start,r,t,e)}else if(Ft(r)){if(n.end)return At(n,n.end,r,t,e)}else{if(n.end)return r.start?Ot(n,n.end,r.start,r,t,e):At(n,n.end,r,t,e);if(r.start)return At(n,r.start,r,t,e)}return Pt(n,r,t,e)}function Rt(t,n,r){var e=It(t,n,r,!0);return e.a=function(t){return arguments.length>1&&void 0!==arguments[1]&&arguments[1]?t+Math.PI:t}(e.a)/m,e}function Ft(t){return!t.type||"corner"===t.type}function Nt(t){return null!=t.start&&!Ft(t)}var Tt=new N;var Bt={f:lt,i:B},qt={f:lt,i:L};function Lt(t,n,r){return t.map((function(t){return function(t,n,r){var e=t.v;if(!e||"g"!==e.t||e.s||!e.v||!e.r)return t;var i=r.getElementById(e.r),o=i&&i.querySelectorAll("stop")||[];return e.s=e.v.map((function(t,n){var r=o[n]&&o[n].getAttribute("offset");return{c:t,o:r=d(parseInt(r)/100)}})),delete e.v,t}(t,0,r)}))}var Ct={gt:"gradientTransform",c:{x:"cx",y:"cy"},rd:"r",f:{x:"x1",y:"y1"},to:{x:"x2",y:"y2"}};function Dt(t,n,e,i,o,u,a,l){return Lt(t,0,l),n=function(t,n,r){for(var e,i,o,u=t.length-1,a={},l=0;l<=u;l++)(e=t[l]).e&&(e.e=n(e.e)),e.v&&"g"===(i=e.v).t&&i.r&&(o=r.getElementById(i.r))&&(a[i.r]={e:o,s:o.querySelectorAll("stop")});return a}(t,i,l),function(i){var o=e(i,t,zt);if(!o)return"none";if("c"===o.t)return st(o.v);if("g"===o.t){if(!n[o.r])return ct(o.r);var u=n[o.r];return function(t,n){for(var r=t.s,e=r.length;e<n.length;e++){var i=r[r.length-1].cloneNode();i.id=Yt(i.id),t.e.appendChild(i),r=t.s=t.e.querySelectorAll("stop")}for(var o=0,u=r.length,a=n.length-1;o<u;o++)r[o].setAttribute("stop-color",st(n[Math.min(o,a)].c)),r[o].setAttribute("offset",n[Math.min(o,a)].o)}(u,o.s),Object.keys(Ct).forEach((function(t){if(void 0!==o[t])if("object"!==r(Ct[t])){var n,e="gt"===t?(n=o[t],Array.isArray(n)?"matrix("+n.join(" ")+")":""):o[t],i=Ct[t];u.e.setAttribute(i,e)}else Object.keys(Ct[t]).forEach((function(n){if(void 0!==o[t][n]){var r=o[t][n],e=Ct[t][n];u.e.setAttribute(e,r)}}))})),ct(o.r)}return"none"}}function zt(t,r,e){if(0===t)return r;if(1===t)return e;if(r&&e){var i=r.t;if(i===e.t)switch(r.t){case"c":return{t:i,v:z(t,r.v,e.v)};case"g":if(r.r===e.r){var o={t:i,s:Vt(t,r.s,e.s),r:r.r};return r.gt&&e.gt&&(o.gt=function(t,n,r){var e=n.length;if(e!==r.length)return T(t,n,r);for(var i=new Array(e),o=0;o<e;o++)i[o]=B(t,n[o],r[o]);return i}(t,r.gt,e.gt)),r.c?(o.c=C(t,r.c,e.c),o.rd=q(t,r.rd,e.rd)):r.f&&(o.f=C(t,r.f,e.f),o.to=C(t,r.to,e.to)),o}}if("c"===r.t&&"g"===e.t||"c"===e.t&&"g"===r.t){var u="c"===r.t?r:e,a="g"===r.t?n({},r):n({},e),l=a.s.map((function(t){return{c:u.v,o:t.o}}));return a.s="c"===r.t?Vt(t,l,a.s):Vt(t,a.s,l),a}}return T(t,r,e)}function Vt(t,n,r){if(n.length===r.length)return n.map((function(n,e){return Gt(t,n,r[e])}));for(var e=Math.max(n.length,r.length),i=[],o=0;o<e;o++){var u=Gt(t,n[Math.min(o,n.length-1)],r[Math.min(o,r.length-1)]);i.push(u)}return i}function Gt(t,n,r){return{o:L(t,n.o,r.o||0),c:z(t,n.c,r.c||{})}}function Yt(t){return t.replace(/-fill-([0-9]+)$/,(function(t,n){return"-fill-"+(+n+1)}))}var $t={fill:Dt,"fill-opacity":qt,stroke:Dt,"stroke-opacity":qt,"stroke-width":Bt,"stroke-dashoffset":{f:lt,i:B},"stroke-dasharray":{f:function(t){var n=arguments.length>1&&void 0!==arguments[1]?arguments[1]:" ";return t&&t.length>0&&(t=t.map((function(t){return d(t,4)}))),ft(t,n)},i:function(t,n,r){var e,i,o,u=n.length,a=r.length;if(u!==a)if(0===u)n=V(u=a,0);else if(0===a)a=u,r=V(u,0);else{var l=(o=(e=u)*(i=a)/function(t,n){for(var r;n;)r=n,n=t%n,t=r;return t||1}(e,i))<0?-o:o;n=G(n,Math.floor(l/u)),r=G(r,Math.floor(l/a)),u=a=l}for(var f=[],s=0;s<u;s++)f.push(d(q(t,n[s],r[s])));return f}},opacity:qt,transform:function(t,n,e,i){if(!(t=function(t,n){if(!t||"object"!==r(t))return null;var e=!1;for(var i in t)t.hasOwnProperty(i)&&(t[i]&&t[i].length?(t[i].forEach((function(t){t.e&&(t.e=n(t.e))})),e=!0):delete t[i]);return e?t:null}(t,i)))return null;var o=function(r,i,o){var u=arguments.length>3&&void 0!==arguments[3]?arguments[3]:null;return t[r]?e(i,t[r],o):n&&n[r]?n[r]:u};return n&&n.a&&t.o?function(n){var r=e(n,t.o,Rt);return Tt.recomposeSelf(r,o("r",n,B,0)+r.a,o("k",n,C),o("s",n,C),o("t",n,C)).toString()}:function(t){return Tt.recomposeSelf(o("o",t,It,null),o("r",t,B,0),o("k",t,C),o("s",t,C),o("t",t,C)).toString()}},r:Bt,"#size":vt,"#radius":ht,_:function(t,n){if(Array.isArray(t))for(var r=0;r<t.length;r++)this[t[r]]=n;else this[t]=n}},Ut=function(t){!function(t,n){if("function"!=typeof n&&null!==n)throw new TypeError("Super expression must either be null or a function");t.prototype=Object.create(n&&n.prototype,{constructor:{value:t,writable:!0,configurable:!0}}),n&&l(t,n)}(u,t);var n,r,i=(n=u,r=f(),function(){var t,e=a(n);if(r){var i=a(this).constructor;t=Reflect.construct(e,arguments,i)}else t=e.apply(this,arguments);return c(this,t)});function u(){return e(this,u),i.apply(this,arguments)}return o(u,null,[{key:"build",value:function(t){var n=h(a(u),"build",this).call(this,t,$t);if(!n)return null;n.el,n.options,function(t,n,r){t.play()}(n.player)}}]),u}(at);return Ut.init(),Ut}));
(function(s,i,o,w){w[o]=w[o]||{};w[o][s]=w[o][s]||[];w[o][s].push(i);})('5c7f360c',{"root":"ehoAT9ZUmn81","animations":[{"elements":{"ehoAT9ZUmn819":{"transform":{"keys":{"o":[{"t":0,"v":{"x":-0.000035,"y":-1.260068,"type":"corner"}},{"t":400,"v":{"x":-0.000035,"y":-1.260068,"type":"corner"}},{"t":420,"v":{"x":-0.000035,"y":26.049807,"type":"corner"}},{"t":750,"v":{"x":-0.000035,"y":26.049807,"type":"corner"}},{"t":760,"v":{"x":-0.000035,"y":-6.47125,"type":"corner"}}]}}},"ehoAT9ZUmn823":{"transform":{"data":{"s":{"x":0.996661,"y":1.004625}},"keys":{"o":[{"t":400,"v":{"x":0,"y":-1.025132,"type":"corner"}},{"t":420,"v":{"x":0,"y":18.925558,"type":"corner"}},{"t":750,"v":{"x":0,"y":18.925558,"type":"corner"}},{"t":760,"v":{"x":2.487274,"y":-1.025132,"type":"corner"}}]}}},"ehoAT9ZUmn838":{"transform":{"data":{"o":{"x":440.277019,"y":418.512087,"type":"corner"},"t":{"x":-440.277019,"y":-418.512087}},"keys":{"r":[{"t":0,"v":1.470547},{"t":500,"v":-1.761644},{"t":1000,"v":0.566837},{"t":1310,"v":1.470547},{"t":1610,"v":-1.761644},{"t":2000,"v":1.470547}]}}}},"s":"MRDA1MzhkMzQ3Njg3ODGQ3Mzg2RzdiODE4MDMB0NGM0NDQyNDI0MjNlWMzRDNzY3Yjg0Nzc3NXTg2N2JXODE4MDM0NGIM0MzNlMzQ3Yjg2NzcT4NDczODY3YjgxODA4YNTM0NGM0MjNlMzQ3OHDdiN2U3ZVkzNDRjNDXMzZUEzNDczN2VIODYU3Nzg0ODA3Mzg2NzczXNEs0Yzc4NzM3ZTg1NMzczZVYzNDg1ODI3NzJc3NzYzNDRjTjQzOGYX/"}],"options":"MLDAxMDg4VzJmODA4MTDZlN2ZXODEyZjQ3MmYT3OTdjNmU3MTJmOGE/L"},'__SVGATOR_PLAYER__',window)]]></script></svg>