<svg id="e7NreCnSEHG1" xmlns="http://www.w3.org/2000/svg" xmlns:xlink="http://www.w3.org/1999/xlink" viewBox="0 0 125.47 115.8" shape-rendering="geometricPrecision" text-rendering="geometricPrecision"><g id="e7NreCnSEHG2" mask="url(#e7NreCnSEHG6)"><g id="e7NreCnSEHG3"><path id="e7NreCnSEHG4" d="M90.11,156.37C74.74,149.25,59.84,133.37,51.98,118.37C44.12,103.37,39.33,85.94,44.24,69.06C46.24,62.28,48.34,57.13,54.61,53.88C62.2,49.95,67.68,48.71,73.61,52.07C81.71,56.66,87.19,64.93,90.26,73.71C93.33,82.49,94.26,91.85,95.18,101.11C101,81.4,111.42,65.84,130.75,58.82C136.37,56.82,145.38,55.93,149.97,59.53C153.31,62.15,157.97,70.99,157.97,75.69C157.87,94.69,148.53,108.99,135.97,123.24C123.41,137.49,107.19,148,90.09,156.17" transform="matrix(1 0 0 1 -36.95 -45.33)" fill="rgb(248,139,178)" stroke="none" stroke-width="1"/><path id="e7NreCnSEHG5" d="M91.63,153.78C65.17,141.07,42.75,108.78,45.46,78.7C46.06,72.05,47.83,62.92,53.23,58.35C59.46,53.09,67.97,51.43,74.69,56.35C88.6,66.43,90.62,85.38,92.17,101.11C92.49,104.36,97.03,105.32,98.06,101.91C102.45,87.41,109.9,73.55,123.32,65.61C129.5,62,138.69,58,146,60.77C152,63.06,155.22,72.21,154.94,78.1C154.07,95.36,144,110,132.76,122.36C120.47,135.88,104.91,145.67,88.58,153.58C85.1,155.26,88.14,160.44,91.58,158.76C106.58,151.49,120.99,142.59,132.93,130.82C143.57,120.32,153.55,107.52,158.18,93.14C161.96,81.36,162.66,66.14,152.06,57.41C142.22,49.27,125.71,56.41,116.86,62.63C104.05,71.68,96.7,85.63,92.25,100.31L98.14,101.11C96.71,86.26,95,70.72,85.45,58.58C81.83,53.94,76.81,49.38,71.02,47.75C64.89,46.02,58.46,48.34,53.1,51.29C41.8,57.51,39,73,39.28,84.85C39.66,99.54,45.34,114.31,53.28,126.54C62,139.93,74.1,152,88.6,159C92.06,160.67,95.11,155.5,91.6,153.82Z" transform="matrix(1 0 0 1 -36.95 -45.33)" fill="rgb(248,139,178)" stroke="none" stroke-width="1"/></g><mask id="e7NreCnSEHG6" mask-type="luminance"><rect id="e7NreCnSEHG7" width="165.716502" height="151.535383" rx="0" ry="0" transform="matrix(1 0 0 1 -20.123251 -17.844441)" fill="rgb(210,219,237)" stroke="none" stroke-width="0"/></mask></g><g id="e7NreCnSEHG8" mask="url(#e7NreCnSEHG12)"><g id="e7NreCnSEHG9"><path id="e7NreCnSEHG10" d="M91.07,126.47C89.052373,125.460101,87.394099,123.854193,86.32,121.87C85.217361,120.076163,84.87545,117.916725,85.37,115.87C85.50261,115.089022,85.98017,114.409418,86.67,114.02C87.362123,113.515297,88.27404,113.42717,89.05,113.79C90.035618,114.387184,90.771118,115.321659,91.12,116.42C91.456135,117.501113,91.657656,118.619555,91.72,119.75C92.46,117.35,93.72,115.45,96.19,114.59C96.96398,114.268637,97.839139,114.297809,98.59,114.67C99.141238,115.203428,99.494001,115.908953,99.59,116.67C99.59,118.98,98.39,120.72,96.82,122.46C95.184772,124.158186,93.230869,125.517423,91.07,126.46" transform="matrix(1 0 0 1 -36.95 -45.33)" fill="rgb(74,33,10)" stroke="none" stroke-width="1"/><path id="e7NreCnSEHG11" d="M92.58,123.88C90.703497,122.971475,89.241737,121.384626,88.49,119.44C88.49,119.31,87.74,116.67,88.26,116.67C88.18,116.67,88.69,119.46,88.72,119.75C88.708818,121.261382,89.823722,122.545072,91.321776,122.745659C92.81983,122.946246,94.233174,122.001084,94.62,120.54C94.987137,119.414368,95.683905,118.424958,96.62,117.7C96.872155,117.522279,97.163981,117.408982,97.47,117.37L96.69,117.07C96.34,117.44,96.27,118.12,96.02,118.57C94.65,121.09,92.07,122.64,89.58,123.86C86.11,125.55,89.15,130.73,92.58,129.04C97.39,126.69,105.29,120.26,101.84,114.04C100.34,111.33,97.38,110.88,94.68,112.04C91.59,113.31,89.88,115.93,88.83,119.04L94.72,119.84C94.4,116.71,93.79,113.35,90.91,111.54C88.277753,109.978468,84.88157,110.783293,83.23,113.36C79.76,119.01,84.42,126.49,89.55,129.15C92.98,130.93,96.02,125.75,92.55,123.97Z" transform="matrix(1 0 0 1 -36.95 -45.33)" fill="rgb(74,33,10)" stroke="none" stroke-width="1"/></g><mask id="e7NreCnSEHG12" mask-type="luminance"><rect id="e7NreCnSEHG13" width="58.259672" height="55.32221" rx="0" ry="0" transform="matrix(1 0 0 1 141.199846 47.028285)" fill="rgb(210,219,237)" stroke="none" stroke-width="0"/></mask></g><g id="e7NreCnSEHG14" mask="url(#e7NreCnSEHG18)"><g id="e7NreCnSEHG15"><path id="e7NreCnSEHG16" d="M91.39,130.83C87.117026,128.591527,83.628473,125.102974,81.39,120.83C79.33,116.9,78.07,112.34,79.39,107.92C79.91,106.14,80.46,104.8,82.1,103.92C84.1,102.92,85.53,102.57,87.1,103.45C89.183968,104.75851,90.73062,106.769867,91.46,109.12C92.172557,111.450045,92.602309,113.857329,92.74,116.29C94.27,111.13,97,107.05,102.06,105.22C103.53,104.68,105.89,104.46,107.06,105.4C108.202004,106.543661,108.939367,108.028921,109.16,109.63C109.16,114.63,106.68,118.35,103.41,122.08C100.027345,125.730179,95.946853,128.664732,91.41,130.71" transform="matrix(1 0 0 1 -36.95 -45.33)" fill="rgb(74,33,10)" stroke="none" stroke-width="1"/><path id="e7NreCnSEHG17" d="M92.9,128.24C87.802432,125.584445,84.01247,120.959896,82.41,115.44C81.95,113.72,81.03,107.32,83.61,106.58C86.19,105.84,88.23,109.05,88.79,110.86C89.271904,112.659681,89.579983,114.501457,89.71,116.36C90.05,119.64,94.51,120.53,95.61,117.16C96.61,113.99,98.1,110.95,101.01,109.09C105.9,105.98,106.83,110.48,105.01,114.53C102.15,121,96,125.16,89.87,128.19C86.41,129.91,89.45,135.08,92.87,133.37C101.27,129.19,117.05,117.21,111,105.87C108.54,101.26,103.5,101.06,99.16,103.25C94.16,105.77,91.46,110.41,89.79,115.56L95.68,116.36C95.12,110.88,94.21,104.57,89.15,101.36C85.207073,99.033069,80.128458,100.265054,77.69,104.14C71.12,114.39,80.78,128.66,89.85,133.44C93.26,135.24,96.3,130.06,92.85,128.26Z" transform="matrix(1 0 0 1 -36.95 -45.33)" fill="rgb(74,33,10)" stroke="none" stroke-width="1"/></g><mask id="e7NreCnSEHG18" mask-type="luminance"><rect id="e7NreCnSEHG19" width="69.119501" height="56.281288" rx="0" ry="0" transform="matrix(1 0 0 1 127.49169 52.999356)" fill="rgb(210,219,237)" stroke="none" stroke-width="0"/></mask></g><g id="e7NreCnSEHG20" mask="url(#e7NreCnSEHG24)"><g id="e7NreCnSEHG21"><path id="e7NreCnSEHG22" d="M88.87,140.81C81.49,137.39,74.35,129.81,70.57,122.58C66.79,115.35,64.51,107,66.86,98.93C67.86,95.67,68.86,93.21,71.86,91.65C75.49,89.76,78.13,89.16,80.97,90.77C84.85,92.98,87.48,96.95,88.97,101.16C90.46,105.37,90.9,109.86,91.33,114.3C94.13,104.84,99.13,97.38,108.4,94.01C111.1,93.01,115.4,92.63,117.62,94.35C119.22,95.61,121.46,99.85,121.45,102.11C121.45,111.2,116.92,118.11,110.92,124.91C104.92,131.71,97.1,136.78,88.92,140.71" transform="matrix(1 0 0 1 -36.95 -45.33)" fill="rgb(74,33,10)" stroke="none" stroke-width="1"/><path id="e7NreCnSEHG23" d="M90.38,138.22C78.6,132.33,68.45,118.61,68.93,105C69.04,102,69.65,97.65,71.82,95.29C74.73,92.14,78.82,92.38,81.76,95.09C86.93,99.91,87.64,107.67,88.29,114.27C88.62,117.54,93.13,118.46,94.18,115.07C96.28,108.35,99.64,101.93,105.98,98.36C108.62,96.87,113.28,94.76,116.08,97.05C119.08,99.44,118.55,104.2,117.79,107.36C114.31,121.87,99.9,132,87.34,138.12C83.87,139.82,86.91,144.99,90.34,143.3C100.29,138.44,109.12,132.17,115.99,123.4C121.11,116.87,126.76,106.72,123.49,98.2C120.22,89.68,112.49,88.64,104.81,92.26C96.04,96.36,91.15,104.57,88.37,113.5L94.26,114.3C93.37,105.3,92.02,95.3,84.26,89.45C78.08,84.74,68.8,87.34,65.35,94.25C56.4,112.18,71.2,135.36,87.29,143.4C90.74,145.12,93.78,139.95,90.29,138.22Z" transform="matrix(1 0 0 1 -36.95 -45.33)" fill="rgb(74,33,10)" stroke="none" stroke-width="1"/></g><mask id="e7NreCnSEHG24" mask-type="luminance"><rect id="e7NreCnSEHG25" width="83.99" height="77.47" rx="0" ry="0" transform="matrix(1 0 0 1 128.122305 26.679446)" fill="rgb(210,219,237)" stroke="none" stroke-width="0"/></mask></g><g id="e7NreCnSEHG26" mask="url(#e7NreCnSEHG30)"><g id="e7NreCnSEHG27"><path id="e7NreCnSEHG28" d="M90,146C79.82,141.28,70,130.77,64.75,120.83C59.5,110.89,56.34,99.3,59.59,88.13C60.9,83.64,62.31,80.23,66.46,78.07C71.46,75.47,75.12,74.65,79.04,76.87C84.4,79.87,88.04,85.39,90.04,91.21C92.04,97.03,92.69,103.21,93.29,109.35C97.15,96.35,104.06,85.99,116.86,81.35C120.58,80,126.55,79.44,129.59,81.82C131.8,83.56,134.89,89.41,134.88,92.53C134.81,105.08,128.62,114.53,120.34,124.02C112.06,133.51,101.28,140.39,90,145.82" transform="matrix(1 0 0 1 -36.95 -45.33)" fill="rgb(74,33,10)" stroke="none" stroke-width="1"/><path id="e7NreCnSEHG29" d="M91.49,143.37C74.68,135.13,60.14,115,61.33,95.7C61.58,91.64,62.44,86.42,65.03,83.1C68.2,79.04,74.49,77.4,78.83,80.27C88.09,86.4,89.33,99.36,90.32,109.35C90.64,112.61,95.17,113.55,96.21,110.15C99,101,103.64,92.1,112.09,87C115.91,84.67,121.22,82.25,125.79,83.47C131.19,84.91,132.23,92.29,131.6,96.92C128.66,118.72,106.68,134.41,88.44,143.28C84.97,144.97,88.01,150.14,91.44,148.46C104.55,142.09,116.38,133.89,125.58,122.46C132.75,113.57,141.2,99.63,136.8,87.76C135.06,83.06,132.14,78.67,127,77.54C121.48,76.33,115.65,78.23,110.82,80.79C100,86.5,93.91,97.19,90.43,108.55L96.32,109.35C95.1,97,93.19,82.55,81.86,75.09C73.06,69.3,61.32,74.93,57.75,84.17C48.38,108.42,66.75,137.89,88.46,148.55C91.91,150.24,94.96,145.07,91.46,143.37Z" transform="matrix(1 0 0 1 -36.95 -45.33)" fill="rgb(74,33,10)" stroke="none" stroke-width="1"/></g><mask id="e7NreCnSEHG30" mask-type="luminance"><rect id="e7NreCnSEHG31" width="135.123273" height="117.93083" rx="0" ry="0" transform="matrix(1 0 0 1 127.981268 6.51559)" fill="rgb(210,219,237)" stroke="none" stroke-width="0"/></mask></g><g id="e7NreCnSEHG32" mask="url(#e7NreCnSEHG36)"><g id="e7NreCnSEHG33"><path id="e7NreCnSEHG34" d="M89.46,158.21C73.56,150.84,58.14,134.43,50,118.9C41.86,103.37,36.91,85.34,42,67.9C44,60.9,46.24,55.56,52.73,52.2C60.57,48.13,66.25,46.85,72.38,50.32C80.75,55.07,86.38,63.63,89.6,72.71C92.82,81.79,93.75,91.46,94.69,101C100.69,80.6,111.5,64.51,131.49,57.25C137.31,55.14,146.64,54.25,151.38,57.98C154.83,60.69,159.67,69.84,159.65,74.7C159.54,94.32,149.88,109.15,136.93,123.89C123.98,138.63,107.13,149.48,89.43,157.96" transform="matrix(1 0 0 1 -36.95 -45.33)" fill="rgb(74,33,10)" stroke="none" stroke-width="1"/><path id="e7NreCnSEHG35" d="M91,155.62C63.08,142.21,38.86,107.11,43.5,75.29C44.5,68.64,46.44,60.14,52.25,56.01C59.42,50.91,67.25,49.66,74.33,55.21C88.08,66,90.1,84.92,91.69,101C92.01,104.25,96.55,105.21,97.58,101.79C101.1,90.16,106.38,78.87,115.38,70.45C119.898633,66.243865,125.166467,62.92306,130.91,60.66C136.04,58.66,143.91,56.76,148.91,59.92C152.91,62.45,156.11,69.53,156.58,74.1C157.25,80.69,155.26,88.1,152.91,94.2C148,107,138.73,118.42,129,127.89C117.1,139.5,102.79,148.2,87.89,155.41C84.42,157.09,87.45,162.27,90.89,160.59C106.49,153.04,121.44,143.79,133.81,131.54C144.81,120.62,155.2,107.3,159.89,92.31C163.66,80.24,164.24,64.85,153.44,55.9C143.22,47.43,125.97,55,116.86,61.53C103.86,70.9,96.3,85.16,91.73,100.24L97.63,101.04C96.21,86,94.47,70.2,85.07,57.75C81.29,52.75,76.07,47.86,69.92,46.01C63.77,44.16,57.52,46.38,52.04,49.17C40.15,55.24,36.92,70.48,37,82.79C37,98.38,43,114.12,51.38,127.1C60.38,141.02,72.94,153.57,87.99,160.8C91.46,162.47,94.5,157.29,90.99,155.62Z" transform="matrix(1 0 0 1 -36.95 -45.33)" fill="rgb(74,33,10)" stroke="none" stroke-width="1"/></g><mask id="e7NreCnSEHG36" mask-type="luminance"><rect id="e7NreCnSEHG37" width="153.989706" height="138.001704" rx="0" ry="0" transform="matrix(1 0 0 1 131.328636 -11.064006)" fill="rgb(210,219,237)" stroke="none" stroke-width="0"/></mask></g><g id="e7NreCnSEHG38" mask="url(#e7NreCnSEHG42)"><g id="e7NreCnSEHG39"><path id="e7NreCnSEHG40" d="M90.35,128.56C88.612747,127.651066,87.193205,126.235012,86.28,124.5C85.337816,122.918292,85.043981,121.033443,85.46,119.24C85.568333,118.563614,85.971273,117.970193,86.56,117.62C87.144186,117.202136,87.90758,117.129614,88.56,117.43C89.40959,117.963348,90.040819,118.782528,90.34,119.74C90.627686,120.689467,90.802228,121.669589,90.86,122.66C91.293182,120.615995,92.719105,118.923648,94.66,118.15C95.306504,117.884128,96.036797,117.91334,96.66,118.23C97.12039,118.69739,97.418375,119.300372,97.51,119.95C97.414035,121.856566,96.60779,123.658132,95.25,125C93.866137,126.486531,92.20051,127.683063,90.35,128.52" transform="matrix(1 0 0 1 -36.95 -45.33)" fill="rgb(248,139,178)" stroke="none" stroke-width="1"/><path id="e7NreCnSEHG41" d="M91.87,126C90.223351,125.170549,88.987663,123.703621,88.45,121.94C88.3182,121.581276,88.250502,121.20217,88.25,120.82C88.55,120.08,88.49,119.89,88.08,120.25C87.08,120.25,87.83,122.08,87.89,122.69C88.23,125.98,92.68,126.86,93.78,123.49C94.094728,122.707134,94.529991,121.978323,95.07,121.33C95.41,120.83,96.35,121.27,95.18,120.67C94.01,120.07,94.83,120.48,94.32,121.19C92.9629,123.260248,91.068749,124.922815,88.84,126C85.38,127.72,88.42,132.9,91.84,131.18C96.35,128.92,103.06,122.97,99.73,117.31C98.27,114.83,95.28,114.55,92.86,115.74C90.454559,117.014407,88.692201,119.237299,88,121.87L93.89,122.66C93.6,119.81,93.04,116.72,90.4,115.06C87.946107,113.589553,84.766662,114.354398,83.25,116.78C80.13,121.85,84.25,128.69,88.84,131.15C92.24,132.97,95.28,127.79,91.84,125.97Z" transform="matrix(1 0 0 1 -36.95 -45.33)" fill="rgb(248,139,178)" stroke="none" stroke-width="1"/></g><mask id="e7NreCnSEHG42" mask-type="luminance"><rect id="e7NreCnSEHG43" width="41.778022" height="36.7" rx="0" ry="0" transform="matrix(1 0 0 1 126.18212 61.71144)" fill="rgb(210,219,237)" stroke="none" stroke-width="0"/></mask></g><g id="e7NreCnSEHG44" mask="url(#e7NreCnSEHG48)"><g id="e7NreCnSEHG45"><path id="e7NreCnSEHG46" d="M90.41,133.59C85.59,131.35,80.91,126.37,78.41,121.67C75.91,116.97,74.41,111.49,75.98,106.19C76.6,104.06,77.26,102.45,79.23,101.43C81.61,100.2,83.33,99.81,85.23,100.86C87.726641,102.425564,89.578821,104.834817,90.45,107.65C91.307236,110.444728,91.827588,113.331844,92,116.25C93.83,110.06,97.1,105.18,103.16,102.98C104.92,102.34,107.75,102.07,109.16,103.2C110.528841,104.569863,111.410576,106.350899,111.67,108.27C111.67,114.27,108.67,118.72,104.78,123.19C100.728441,127.563431,95.837973,131.076543,90.4,133.52" transform="matrix(1 0 0 1 -36.95 -45.33)" fill="rgb(248,139,178)" stroke="none" stroke-width="1"/><path id="e7NreCnSEHG47" d="M91.92,131C85.29,127.58,79.86,120.83,78.62,113.35C78.12,110.35,78.28,102.84,83.02,103.25C87.92,103.67,88.67,113.07,89.02,116.25C89.37,119.43,93.83,120.43,94.91,117.05C96.23,112.92,98.19,109.05,102.09,106.77C103.78,105.77,106.15,104.71,107.96,106.43C109.77,108.15,108.44,111.62,107.73,113.43C104.55,121.64,96.46,127.17,88.91,130.9C85.45,132.61,88.48,137.79,91.91,136.08C98.75,132.7,104.8,128.36,109.42,122.23C112.98,117.51,116.42,110.43,113.7,104.54C111.09,98.94,105.55,98.37,100.29,100.91C94.29,103.78,91.04,109.32,89.09,115.42L94.99,116.22C94.33,109.77,93.19,101.64,86.73,98.22C82.36,95.91,76.63,98.14,74.26,102.33C67.42,114.43,78.19,130.61,88.89,136.13C92.31,137.9,95.35,132.72,91.89,130.95Z" transform="matrix(1 0 0 1 -36.95 -45.33)" fill="rgb(248,139,178)" stroke="none" stroke-width="1"/></g><mask id="e7NreCnSEHG48" mask-type="luminance"><rect id="e7NreCnSEHG49" width="70.546268" height="68.134518" rx="0" ry="0" transform="matrix(1 0 0 1 130.209748 37.600373)" fill="rgb(210,219,237)" stroke="none" stroke-width="0"/></mask></g><g id="e7NreCnSEHG50" mask="url(#e7NreCnSEHG54)"><g id="e7NreCnSEHG51"><path id="e7NreCnSEHG52" d="M89.31,141.76C81.76,138.26,74.44,130.47,70.58,123.1C66.72,115.73,64.37,107.18,66.79,98.89C67.79,95.56,68.79,93.03,71.88,91.44C75.6,89.5,78.29,88.9,81.2,90.54C85.2,92.8,87.87,96.86,89.38,101.17C90.89,105.48,91.38,110.08,91.79,114.62C94.65,104.95,99.79,97.31,109.26,93.86C112.02,92.86,116.44,92.44,118.69,94.21C120.33,95.49,122.63,99.84,122.62,102.14C122.57,111.45,117.98,118.49,111.84,125.49C105.7,132.49,97.69,137.63,89.3,141.66" transform="matrix(1 0 0 1 -36.95 -45.33)" fill="rgb(248,139,178)" stroke="none" stroke-width="1"/><path id="e7NreCnSEHG53" d="M90.82,139.17C79,133.28,69.06,119.89,68.82,106.38C68.71,100.2,73.35,87.49,81.53,94.38C87.28,99.25,88.08,107.6,88.78,114.58C89.1,117.85,93.62,118.78,94.67,115.38C96.67,108.86,99.88,102.59,105.8,98.82C108.16,97.32,112.86,94.88,115.8,96.12C119.51,97.66,119.8,102.74,119.23,106.03C116.58,121.59,100.84,132.61,87.72,139.03C84.25,140.72,87.29,145.9,90.72,144.21C101.02,139.21,110.13,132.67,117.19,123.55C122.49,116.7,128.19,106.15,124.31,97.4C120.64,89.05,112.65,88.58,105.06,92.33C96.42,96.59,91.57,104.88,88.81,113.79L94.7,114.58C93.77,105.27,92.34,94.44,83.9,88.73C77.18,84.18,67.95,87.86,64.9,95.04C56.97,113.39,71.35,136.15,87.75,144.31C91.2,146.02,94.24,140.85,90.75,139.13Z" transform="matrix(1 0 0 1 -36.95 -45.33)" fill="rgb(248,139,178)" stroke="none" stroke-width="1"/></g><mask id="e7NreCnSEHG54" mask-type="luminance"><rect id="e7NreCnSEHG55" width="85.55" height="79.87" rx="0" ry="0" transform="matrix(1 0 0 1 112.040961 31.732632)" fill="rgb(210,219,237)" stroke="none" stroke-width="0"/></mask></g><g id="e7NreCnSEHG56" mask="url(#e7NreCnSEHG60)"><g id="e7NreCnSEHG57"><path id="e7NreCnSEHG58" d="M89.46,148.9C79.1,144.18,69.06,133.65,63.78,123.68C58.5,113.71,55.28,102.12,58.62,90.89C59.96,86.38,61.4,82.96,65.62,80.79C70.74,78.16,74.45,77.33,78.44,79.56C83.89,82.56,87.58,88.09,89.65,93.93C91.72,99.77,92.33,105.99,92.93,112.14C96.9,99,104,88.67,117,84C120.79,82.63,126.88,82.06,130,84.45C132.25,86.18,135.39,92.06,135.37,95.18C135.28,107.79,128.96,117.34,120.5,126.83C112.04,136.32,101.03,143.31,89.5,148.78" transform="matrix(1 0 0 1 -36.95 -45.33)" fill="rgb(248,139,178)" stroke="none" stroke-width="1"/><path id="e7NreCnSEHG59" d="M91,146.31C74.16,138.22,59.62,118.57,60.29,99.31C60.44,95.16,61.29,90,63.65,86.44C66.45,82.21,73.17,79.96,77.65,82.51C87.65,88.25,88.99,101.92,89.99,112.1C90.31,115.37,94.82,116.29,95.88,112.9C98.79,103.61,103.55,94.73,112.13,89.57C116.05,87.21,121.45,84.79,126.13,85.99C131.62,87.41,132.72,94.79,132.07,99.49C128.99,121.55,106.44,137.26,87.98,146.13C84.51,147.8,87.55,152.98,90.98,151.31C104.3,144.91,116.39,136.67,125.8,125.17C133.06,116.29,141.74,102.27,137.27,90.33C135.5,85.58,132.52,81.2,127.34,80.08C121.73,78.88,115.82,80.79,110.89,83.37C99.89,89.11,93.66,99.83,90.07,111.3L95.96,112.1C94.73,99.64,92.77,85.19,81.31,77.74C72.13,71.74,60.11,77.88,56.58,87.48C47.58,111.87,66.09,140.94,87.97,151.48C91.43,153.14,94.48,147.97,90.97,146.3Z" transform="matrix(1 0 0 1 -36.95 -45.33)" fill="rgb(248,139,178)" stroke="none" stroke-width="1"/></g><mask id="e7NreCnSEHG60" mask-type="luminance"><rect id="e7NreCnSEHG61" width="148.09939" height="135.477282" rx="0" ry="0" transform="matrix(1 0 0 1 136.377479 -9.801795)" fill="rgb(210,219,237)" stroke="none" stroke-width="0"/></mask></g><script><![CDATA[!function(t,n){"object"==typeof exports&&"undefined"!=typeof module?module.exports=n():"function"==typeof define&&define.amd?define(n):((t="undefined"!=typeof globalThis?globalThis:t||self).__SVGATOR_PLAYER__=t.__SVGATOR_PLAYER__||{},t.__SVGATOR_PLAYER__["5c7f360c"]=n())}(this,(function(){"use strict";function t(t,n){var r=Object.keys(t);if(Object.getOwnPropertySymbols){var e=Object.getOwnPropertySymbols(t);n&&(e=e.filter((function(n){return Object.getOwnPropertyDescriptor(t,n).enumerable}))),r.push.apply(r,e)}return r}function n(n){for(var r=1;r<arguments.length;r++){var e=null!=arguments[r]?arguments[r]:{};r%2?t(Object(e),!0).forEach((function(t){u(n,t,e[t])})):Object.getOwnPropertyDescriptors?Object.defineProperties(n,Object.getOwnPropertyDescriptors(e)):t(Object(e)).forEach((function(t){Object.defineProperty(n,t,Object.getOwnPropertyDescriptor(e,t))}))}return n}function r(t){return(r="function"==typeof Symbol&&"symbol"==typeof Symbol.iterator?function(t){return typeof t}:function(t){return t&&"function"==typeof Symbol&&t.constructor===Symbol&&t!==Symbol.prototype?"symbol":typeof t})(t)}function e(t,n){if(!(t instanceof n))throw new TypeError("Cannot call a class as a function")}function i(t,n){for(var r=0;r<n.length;r++){var e=n[r];e.enumerable=e.enumerable||!1,e.configurable=!0,"value"in e&&(e.writable=!0),Object.defineProperty(t,e.key,e)}}function o(t,n,r){return n&&i(t.prototype,n),r&&i(t,r),t}function u(t,n,r){return n in t?Object.defineProperty(t,n,{value:r,enumerable:!0,configurable:!0,writable:!0}):t[n]=r,t}function a(t){return(a=Object.setPrototypeOf?Object.getPrototypeOf:function(t){return t.__proto__||Object.getPrototypeOf(t)})(t)}function l(t,n){return(l=Object.setPrototypeOf||function(t,n){return t.__proto__=n,t})(t,n)}function f(){if("undefined"==typeof Reflect||!Reflect.construct)return!1;if(Reflect.construct.sham)return!1;if("function"==typeof Proxy)return!0;try{return Boolean.prototype.valueOf.call(Reflect.construct(Boolean,[],(function(){}))),!0}catch(t){return!1}}function s(t,n,r){return(s=f()?Reflect.construct:function(t,n,r){var e=[null];e.push.apply(e,n);var i=new(Function.bind.apply(t,e));return r&&l(i,r.prototype),i}).apply(null,arguments)}function c(t,n){if(n&&("object"==typeof n||"function"==typeof n))return n;if(void 0!==n)throw new TypeError("Derived constructors may only return object or undefined");return function(t){if(void 0===t)throw new ReferenceError("this hasn't been initialised - super() hasn't been called");return t}(t)}function h(t,n,r){return(h="undefined"!=typeof Reflect&&Reflect.get?Reflect.get:function(t,n,r){var e=function(t,n){for(;!Object.prototype.hasOwnProperty.call(t,n)&&null!==(t=a(t)););return t}(t,n);if(e){var i=Object.getOwnPropertyDescriptor(e,n);return i.get?i.get.call(r):i.value}})(t,n,r||t)}function v(t){return function(t){if(Array.isArray(t))return y(t)}(t)||function(t){if("undefined"!=typeof Symbol&&null!=t[Symbol.iterator]||null!=t["@@iterator"])return Array.from(t)}(t)||function(t,n){if(!t)return;if("string"==typeof t)return y(t,n);var r=Object.prototype.toString.call(t).slice(8,-1);"Object"===r&&t.constructor&&(r=t.constructor.name);if("Map"===r||"Set"===r)return Array.from(t);if("Arguments"===r||/^(?:Ui|I)nt(?:8|16|32)(?:Clamped)?Array$/.test(r))return y(t,n)}(t)||function(){throw new TypeError("Invalid attempt to spread non-iterable instance.\nIn order to be iterable, non-array objects must have a [Symbol.iterator]() method.")}()}function y(t,n){(null==n||n>t.length)&&(n=t.length);for(var r=0,e=new Array(n);r<n;r++)e[r]=t[r];return e}var g=d(Math.pow(10,-6));function d(t){var n=arguments.length>1&&void 0!==arguments[1]?arguments[1]:6;if(Number.isInteger(t))return t;var r=Math.pow(10,n);return Math.round((+t+Number.EPSILON)*r)/r}function p(t,n){var r=arguments.length>2&&void 0!==arguments[2]?arguments[2]:g;return Math.abs(t-n)<r}var m=Math.PI/180;function b(t){return t}function w(t,n,r){var e=1-r;return 3*r*e*(t*e+n*r)+r*r*r}function x(){var t=arguments.length>0&&void 0!==arguments[0]?arguments[0]:0,n=arguments.length>1&&void 0!==arguments[1]?arguments[1]:0,r=arguments.length>2&&void 0!==arguments[2]?arguments[2]:1,e=arguments.length>3&&void 0!==arguments[3]?arguments[3]:1;return t<0||t>1||r<0||r>1?null:p(t,n)&&p(r,e)?b:function(i){if(i<=0)return t>0?i*n/t:0===n&&r>0?i*e/r:0;if(i>=1)return r<1?1+(i-1)*(e-1)/(r-1):1===r&&t<1?1+(i-1)*(n-1)/(t-1):1;for(var o,u=0,a=1;u<a;){var l=w(t,r,o=(u+a)/2);if(p(i,l))break;l<i?u=o:a=o}return w(n,e,o)}}function A(){return 1}function k(t){return 1===t?1:0}function S(){var t=arguments.length>0&&void 0!==arguments[0]?arguments[0]:1,n=arguments.length>1&&void 0!==arguments[1]?arguments[1]:0;if(1===t){if(0===n)return k;if(1===n)return A}var r=1/t;return function(t){return t>=1?1:(t+=n*r)-t%r}}var _=Math.sin,O=Math.cos,j=Math.acos,M=Math.asin,P=Math.tan,E=Math.atan2,I=Math.PI/180,R=180/Math.PI,F=Math.sqrt,N=function(){function t(){var n=arguments.length>0&&void 0!==arguments[0]?arguments[0]:1,r=arguments.length>1&&void 0!==arguments[1]?arguments[1]:0,i=arguments.length>2&&void 0!==arguments[2]?arguments[2]:0,o=arguments.length>3&&void 0!==arguments[3]?arguments[3]:1,u=arguments.length>4&&void 0!==arguments[4]?arguments[4]:0,a=arguments.length>5&&void 0!==arguments[5]?arguments[5]:0;e(this,t),this.m=[n,r,i,o,u,a],this.i=null,this.w=null,this.s=null}return o(t,[{key:"determinant",get:function(){var t=this.m;return t[0]*t[3]-t[1]*t[2]}},{key:"isIdentity",get:function(){if(null===this.i){var t=this.m;this.i=1===t[0]&&0===t[1]&&0===t[2]&&1===t[3]&&0===t[4]&&0===t[5]}return this.i}},{key:"point",value:function(t,n){var r=this.m;return{x:r[0]*t+r[2]*n+r[4],y:r[1]*t+r[3]*n+r[5]}}},{key:"translateSelf",value:function(){var t=arguments.length>0&&void 0!==arguments[0]?arguments[0]:0,n=arguments.length>1&&void 0!==arguments[1]?arguments[1]:0;if(!t&&!n)return this;var r=this.m;return r[4]+=r[0]*t+r[2]*n,r[5]+=r[1]*t+r[3]*n,this.w=this.s=this.i=null,this}},{key:"rotateSelf",value:function(){var t=arguments.length>0&&void 0!==arguments[0]?arguments[0]:0;if(t%=360){var n=_(t*=I),r=O(t),e=this.m,i=e[0],o=e[1];e[0]=i*r+e[2]*n,e[1]=o*r+e[3]*n,e[2]=e[2]*r-i*n,e[3]=e[3]*r-o*n,this.w=this.s=this.i=null}return this}},{key:"scaleSelf",value:function(){var t=arguments.length>0&&void 0!==arguments[0]?arguments[0]:1,n=arguments.length>1&&void 0!==arguments[1]?arguments[1]:1;if(1!==t||1!==n){var r=this.m;r[0]*=t,r[1]*=t,r[2]*=n,r[3]*=n,this.w=this.s=this.i=null}return this}},{key:"skewSelf",value:function(t,n){if(n%=360,(t%=360)||n){var r=this.m,e=r[0],i=r[1],o=r[2],u=r[3];t&&(t=P(t*I),r[2]+=e*t,r[3]+=i*t),n&&(n=P(n*I),r[0]+=o*n,r[1]+=u*n),this.w=this.s=this.i=null}return this}},{key:"resetSelf",value:function(){var t=arguments.length>0&&void 0!==arguments[0]?arguments[0]:1,n=arguments.length>1&&void 0!==arguments[1]?arguments[1]:0,r=arguments.length>2&&void 0!==arguments[2]?arguments[2]:0,e=arguments.length>3&&void 0!==arguments[3]?arguments[3]:1,i=arguments.length>4&&void 0!==arguments[4]?arguments[4]:0,o=arguments.length>5&&void 0!==arguments[5]?arguments[5]:0,u=this.m;return u[0]=t,u[1]=n,u[2]=r,u[3]=e,u[4]=i,u[5]=o,this.w=this.s=this.i=null,this}},{key:"recomposeSelf",value:function(){var t=arguments.length>0&&void 0!==arguments[0]?arguments[0]:null,n=arguments.length>1&&void 0!==arguments[1]?arguments[1]:null,r=arguments.length>2&&void 0!==arguments[2]?arguments[2]:null,e=arguments.length>3&&void 0!==arguments[3]?arguments[3]:null,i=arguments.length>4&&void 0!==arguments[4]?arguments[4]:null;return this.isIdentity||this.resetSelf(),t&&(t.x||t.y)&&this.translateSelf(t.x,t.y),n&&this.rotateSelf(n),r&&(r.x&&this.skewSelf(r.x,0),r.y&&this.skewSelf(0,r.y)),!e||1===e.x&&1===e.y||this.scaleSelf(e.x,e.y),i&&(i.x||i.y)&&this.translateSelf(i.x,i.y),this}},{key:"decompose",value:function(){var t=arguments.length>0&&void 0!==arguments[0]?arguments[0]:0,n=arguments.length>1&&void 0!==arguments[1]?arguments[1]:0,r=this.m,e=r[0]*r[0]+r[1]*r[1],i=[[r[0],r[1]],[r[2],r[3]]],o=F(e);if(0===o)return{origin:{x:d(r[4]),y:d(r[5])},translate:{x:d(t),y:d(n)},scale:{x:0,y:0},skew:{x:0,y:0},rotate:0};i[0][0]/=o,i[0][1]/=o;var u=r[0]*r[3]-r[1]*r[2]<0;u&&(o=-o);var a=i[0][0]*i[1][0]+i[0][1]*i[1][1];i[1][0]-=i[0][0]*a,i[1][1]-=i[0][1]*a;var l=F(i[1][0]*i[1][0]+i[1][1]*i[1][1]);if(0===l)return{origin:{x:d(r[4]),y:d(r[5])},translate:{x:d(t),y:d(n)},scale:{x:d(o),y:0},skew:{x:0,y:0},rotate:0};i[1][0]/=l,i[1][1]/=l,a/=l;var f=0;return i[1][1]<0?(f=j(i[1][1])*R,i[0][1]<0&&(f=360-f)):f=M(i[0][1])*R,u&&(f=-f),a=E(a,F(i[0][0]*i[0][0]+i[0][1]*i[0][1]))*R,u&&(a=-a),{origin:{x:d(r[4]),y:d(r[5])},translate:{x:d(t),y:d(n)},scale:{x:d(o),y:d(l)},skew:{x:d(a),y:0},rotate:d(f)}}},{key:"clone",value:function(){var t=this.m;return new this.constructor(t[0],t[1],t[2],t[3],t[4],t[5])}},{key:"toString",value:function(){var t=arguments.length>0&&void 0!==arguments[0]?arguments[0]:" ";return null===this.s&&(this.s="matrix("+this.m.map((function(t){return d(t)})).join(t)+")"),this.s}}],[{key:"create",value:function(t){return t?Array.isArray(t)?s(this,v(t)):t instanceof this?t.clone():(new this).recomposeSelf(t.origin,t.rotate,t.skew,t.scale,t.translate):new this}}]),t}();function T(t,n,r){return t>=.5?r:n}function B(t,n,r){return 0===t||n===r?n:t*(r-n)+n}function q(t,n,r){var e=B(t,n,r);return e<=0?0:e}function L(t,n,r){var e=B(t,n,r);return e<=0?0:e>=1?1:e}function C(t,n,r){return 0===t?n:1===t?r:{x:B(t,n.x,r.x),y:B(t,n.y,r.y)}}function D(t,n,r){var e=function(t,n,r){return Math.round(B(t,n,r))}(t,n,r);return e<=0?0:e>=255?255:e}function z(t,n,r){return 0===t?n:1===t?r:{r:D(t,n.r,r.r),g:D(t,n.g,r.g),b:D(t,n.b,r.b),a:B(t,null==n.a?1:n.a,null==r.a?1:r.a)}}function V(t,n){for(var r=[],e=0;e<t;e++)r.push(n);return r}function G(t,n){if(--n<=0)return t;var r=(t=Object.assign([],t)).length;do{for(var e=0;e<r;e++)t.push(t[e])}while(--n>0);return t}var Y,$=function(){function t(n){e(this,t),this.list=n,this.length=n.length}return o(t,[{key:"setAttribute",value:function(t,n){for(var r=this.list,e=0;e<this.length;e++)r[e].setAttribute(t,n)}},{key:"removeAttribute",value:function(t){for(var n=this.list,r=0;r<this.length;r++)n[r].removeAttribute(t)}},{key:"style",value:function(t,n){for(var r=this.list,e=0;e<this.length;e++)r[e].style[t]=n}}]),t}(),U=/-./g,Q=function(t,n){return n.toUpperCase()};function H(t){return"function"==typeof t?t:T}function J(t){return t?"function"==typeof t?t:Array.isArray(t)?function(t){var n=arguments.length>1&&void 0!==arguments[1]?arguments[1]:b;if(!Array.isArray(t))return n;switch(t.length){case 1:return S(t[0])||n;case 2:return S(t[0],t[1])||n;case 4:return x(t[0],t[1],t[2],t[3])||n}return n}(t,null):function(t,n){var r=arguments.length>2&&void 0!==arguments[2]?arguments[2]:b;switch(t){case"linear":return b;case"steps":return S(n.steps||1,n.jump||0)||r;case"bezier":case"cubic-bezier":return x(n.x1||0,n.y1||0,n.x2||0,n.y2||0)||r}return r}(t.type,t.value,null):null}function Z(t,n,r){var e=arguments.length>3&&void 0!==arguments[3]&&arguments[3],i=n.length-1;if(t<=n[0].t)return e?[0,0,n[0].v]:n[0].v;if(t>=n[i].t)return e?[i,1,n[i].v]:n[i].v;var o,u=n[0],a=null;for(o=1;o<=i;o++){if(!(t>n[o].t)){a=n[o];break}u=n[o]}return null==a?e?[i,1,n[i].v]:n[i].v:u.t===a.t?e?[o,1,a.v]:a.v:(t=(t-u.t)/(a.t-u.t),u.e&&(t=u.e(t)),e?[o,t,r(t,u.v,a.v)]:r(t,u.v,a.v))}function K(t,n){var r=arguments.length>2&&void 0!==arguments[2]?arguments[2]:null;return t&&t.length?"function"!=typeof n?null:("function"!=typeof r&&(r=null),function(e){var i=Z(e,t,n);return null!=i&&r&&(i=r(i)),i}):null}function W(t,n){return t.t-n.t}function X(t,n,e,i,o){var u,a="@"===e[0],l="#"===e[0],f=Y[e],s=T;switch(a?(u=e.substr(1),e=u.replace(U,Q)):l&&(e=e.substr(1)),r(f)){case"function":if(s=f(i,o,Z,J,e,a,n,t),l)return s;break;case"string":s=K(i,H(f));break;case"object":if((s=K(i,H(f.i),f.f))&&"function"==typeof f.u)return f.u(n,s,e,a,t)}return s?function(t,n,r){if(arguments.length>3&&void 0!==arguments[3]&&arguments[3])return t instanceof $?function(e){return t.style(n,r(e))}:function(e){return t.style[n]=r(e)};if(Array.isArray(n)){var e=n.length;return function(i){var o=r(i);if(null==o)for(var u=0;u<e;u++)t[u].removeAttribute(n);else for(var a=0;a<e;a++)t[a].setAttribute(n,o)}}return function(e){var i=r(e);null==i?t.removeAttribute(n):t.setAttribute(n,i)}}(n,e,s,a):null}function tt(t,n,e,i){if(!i||"object"!==r(i))return null;var o=null,u=null;return Array.isArray(i)?u=function(t){if(!t||!t.length)return null;for(var n=0;n<t.length;n++)t[n].e&&(t[n].e=J(t[n].e));return t.sort(W)}(i):(u=i.keys,o=i.data||null),u?X(t,n,e,u,o):null}function nt(t,n,r){if(!r)return null;var e=[];for(var i in r)if(r.hasOwnProperty(i)){var o=tt(t,n,i,r[i]);o&&e.push(o)}return e.length?e:null}function rt(t,n){if(!n.duration||n.duration<0)return null;var r=function(t,n){if(!n)return null;var r=[];if(Array.isArray(n))for(var e=n.length,i=0;i<e;i++){var o=n[i];if(2===o.length){var u=null;if("string"==typeof o[0])u=t.getElementById(o[0]);else if(Array.isArray(o[0])){u=[];for(var a=0;a<o[0].length;a++)if("string"==typeof o[0][a]){var l=t.getElementById(o[0][a]);l&&u.push(l)}u=u.length?1===u.length?u[0]:new $(u):null}if(u){var f=nt(t,u,o[1]);f&&(r=r.concat(f))}}}else for(var s in n)if(n.hasOwnProperty(s)){var c=t.getElementById(s);if(c){var h=nt(t,c,n[s]);h&&(r=r.concat(h))}}return r.length?r:null}(t,n.elements);return r?function(t,n){var r=arguments.length>2&&void 0!==arguments[2]?arguments[2]:1/0,e=arguments.length>3&&void 0!==arguments[3]?arguments[3]:1,i=arguments.length>4&&void 0!==arguments[4]&&arguments[4],o=arguments.length>5&&void 0!==arguments[5]?arguments[5]:1,u=t.length,a=e>0?n:0;i&&r%2==0&&(a=n-a);var l=null;return function(f,s){var c=f%n,h=1+(f-c)/n;s*=e,i&&h%2==0&&(s=-s);var v=!1;if(h>r)c=a,v=!0,-1===o&&(c=e>0?0:n);else if(s<0&&(c=n-c),c===l)return!1;l=c;for(var y=0;y<u;y++)t[y](c);return v}}(r,n.duration,n.iterations||1/0,n.direction||1,!!n.alternate,n.fill||1):null}function et(t){return+("0x"+(t.replace(/[^0-9a-fA-F]+/g,"")||27))}function it(t,n,r){return!t||!r||n>t.length?t:t.substring(0,n)+it(t.substring(n+1),r,r)}function ot(t){var n=arguments.length>1&&void 0!==arguments[1]?arguments[1]:27;return!t||t%n?t%n:ot(t/n,n)}function ut(t,n,r){if(t&&t.length){var e=et(r),i=et(n),o=ot(e)+5,u=it(t,ot(e,5),o);return u=u.replace(/\x7c$/g,"==").replace(/\x2f$/g,"="),u=function(t,n,r){var e=+("0x"+t.substring(0,4));t=t.substring(4);for(var i=n%e+r%27,o=[],u=0;u<t.length;u+=2)if("|"!==t[u]){var a=+("0x"+t[u]+t[u+1])-i;o.push(a)}else{var l=+("0x"+t.substring(u+1,u+1+4))-i;u+=3,o.push(l)}return String.fromCharCode.apply(String,o)}(u=(u=atob(u)).replace(/[\x41-\x5A]/g,""),i,e),u=JSON.parse(u)}}Number.isInteger||(Number.isInteger=function(t){return"number"==typeof t&&isFinite(t)&&Math.floor(t)===t}),Number.EPSILON||(Number.EPSILON=2220446049250313e-31);var at=function(){function t(n,r){var i=arguments.length>2&&void 0!==arguments[2]?arguments[2]:{};e(this,t),this._id=0,this._running=!1,this._rollingBack=!1,this._animations=n,this.duration=r.duration,this.alternate=r.alternate,this.fill=r.fill,this.iterations=r.iterations,this.direction=i.direction||1,this.speed=i.speed||1,this.fps=i.fps||100,this.offset=i.offset||0,this.rollbackStartOffset=0}return o(t,[{key:"_rollback",value:function(){var t=this,n=1/0,r=null;this.rollbackStartOffset=this.offset,this._rollingBack||(this._rollingBack=!0,this._running=!0);this._id=window.requestAnimationFrame((function e(i){if(t._rollingBack){null==r&&(r=i);var o=i-r,u=t.rollbackStartOffset-o,a=Math.round(u*t.speed);if(a>t.duration&&n!=1/0){var l=!!t.alternate&&a/t.duration%2>1,f=a%t.duration;a=(f+=l?t.duration:0)||t.duration}var s=t.fps?1e3/t.fps:0,c=Math.max(0,a);if(c<n-s){t.offset=c,n=c;for(var h=t._animations,v=h.length,y=0;y<v;y++)h[y](c,t.direction)}var g=!1;if(t.iterations>0&&-1===t.fill){var d=t.iterations*t.duration,p=d==a;a=p?0:a,t.offset=p?0:t.offset,g=a>d}a>0&&t.offset>=a&&!g?t._id=window.requestAnimationFrame(e):t.stop()}}))}},{key:"_start",value:function(){var t=this,n=arguments.length>0&&void 0!==arguments[0]?arguments[0]:0,r=-1/0,e=null,i={},o=function o(u){t._running=!0,null==e&&(e=u);var a=Math.round((u-e+n)*t.speed),l=t.fps?1e3/t.fps:0;if(a>r+l&&!t._rollingBack){t.offset=a,r=a;for(var f=t._animations,s=f.length,c=0,h=0;h<s;h++)i[h]?c++:(i[h]=f[h](a,t.direction),i[h]&&c++);if(c===s)return void t._stop()}t._id=window.requestAnimationFrame(o)};this._id=window.requestAnimationFrame(o)}},{key:"_stop",value:function(){this._id&&window.cancelAnimationFrame(this._id),this._running=!1,this._rollingBack=!1}},{key:"play",value:function(){!this._rollingBack&&this._running||(this._rollingBack=!1,this.rollbackStartOffset>this.duration&&(this.offset=this.rollbackStartOffset-(this.rollbackStartOffset-this.offset)%this.duration,this.rollbackStartOffset=0),this._start(this.offset))}},{key:"stop",value:function(){this._stop(),this.offset=0,this.rollbackStartOffset=0;var t=this.direction,n=this._animations;window.requestAnimationFrame((function(){for(var r=0;r<n.length;r++)n[r](0,t)}))}},{key:"reachedToEnd",value:function(){return this.iterations>0&&this.offset>=this.iterations*this.duration}},{key:"restart",value:function(){this._stop(),this.offset=0,this._start()}},{key:"pause",value:function(){this._stop()}},{key:"reverse",value:function(){this.direction=-this.direction}}],[{key:"build",value:function(r,e){return delete r.animationSettings,r.options=ut(r.options,r.root,"5c7f360c"),r.animations.map((function(t){var e=ut(t.s,r.root,"5c7f360c");for(var i in delete t.s,r.animationSettings||(r.animationSettings=n({},e)),e)e.hasOwnProperty(i)&&(t[i]=e[i])})),(r=function(t,n){if(Y=n,!t||!t.root||!Array.isArray(t.animations))return null;for(var r=document.getElementsByTagName("svg"),e=!1,i=0;i<r.length;i++)if(r[i].id===t.root&&!r[i].svgatorAnimation){(e=r[i]).svgatorAnimation=!0;break}if(!e)return null;var o=t.animations.map((function(t){return rt(e,t)})).filter((function(t){return!!t}));return o.length?{element:e,animations:o,animationSettings:t.animationSettings,options:t.options||void 0}:null}(r,e))?{el:r.element,options:r.options||{},player:new t(r.animations,r.animationSettings,r.options)}:null}},{key:"push",value:function(t){return this.build(t)}},{key:"init",value:function(){var t=this,n=window.__SVGATOR_PLAYER__&&window.__SVGATOR_PLAYER__["5c7f360c"];Array.isArray(n)&&n.splice(0).forEach((function(n){return t.build(n)}))}}]),t}();function lt(t){return d(t)+""}function ft(t){var n=arguments.length>1&&void 0!==arguments[1]?arguments[1]:" ";return t&&t.length?t.map(lt).join(n):""}function st(t){return t?null==t.a||t.a>=1?"rgb("+t.r+","+t.g+","+t.b+")":"rgba("+t.r+","+t.g+","+t.b+","+t.a+")":"transparent"}function ct(t){return t?"url(#"+t+")":"none"}!function(){for(var t=0,n=["ms","moz","webkit","o"],r=0;r<n.length&&!window.requestAnimationFrame;++r)window.requestAnimationFrame=window[n[r]+"RequestAnimationFrame"],window.cancelAnimationFrame=window[n[r]+"CancelAnimationFrame"]||window[n[r]+"CancelRequestAnimationFrame"];window.requestAnimationFrame||(window.requestAnimationFrame=function(n){var r=Date.now(),e=Math.max(0,16-(r-t)),i=window.setTimeout((function(){n(r+e)}),e);return t=r+e,i},window.cancelAnimationFrame=window.clearTimeout)}();var ht={f:null,i:function(t,n,r){return 0===t?n:1===t?r:{x:q(t,n.x,r.x),y:q(t,n.y,r.y)}},u:function(t,n){return function(r){var e=n(r);t.setAttribute("rx",lt(e.x)),t.setAttribute("ry",lt(e.y))}}},vt={f:null,i:function(t,n,r){return 0===t?n:1===t?r:{width:q(t,n.width,r.width),height:q(t,n.height,r.height)}},u:function(t,n){return function(r){var e=n(r);t.setAttribute("width",lt(e.width)),t.setAttribute("height",lt(e.height))}}};Object.freeze({M:2,L:2,Z:0,H:1,V:1,C:6,Q:4,T:2,S:4,A:7});var yt={},gt=null;function dt(t){var n=function(){if(gt)return gt;if("object"!==("undefined"==typeof document?"undefined":r(document))||!document.createElementNS)return{};var t=document.createElementNS("http://www.w3.org/2000/svg","svg");return t&&t.style?(t.style.position="absolute",t.style.opacity="0.01",t.style.zIndex="-9999",t.style.left="-9999px",t.style.width="1px",t.style.height="1px",gt={svg:t}):{}}().svg;if(!n)return function(t){return null};var e=document.createElementNS(n.namespaceURI,"path");e.setAttributeNS(null,"d",t),e.setAttributeNS(null,"fill","none"),e.setAttributeNS(null,"stroke","none"),n.appendChild(e);var i=e.getTotalLength();return function(t){var n=e.getPointAtLength(i*t);return{x:n.x,y:n.y}}}function pt(t){return yt[t]?yt[t]:yt[t]=dt(t)}function mt(t,n,r,e){if(!t||!e)return!1;var i=["M",t.x,t.y];if(n&&r&&(i.push("C"),i.push(n.x),i.push(n.y),i.push(r.x),i.push(r.y)),n?!r:r){var o=n||r;i.push("Q"),i.push(o.x),i.push(o.y)}return n||r||i.push("L"),i.push(e.x),i.push(e.y),i.join(" ")}function bt(t,n,r,e){var i=arguments.length>4&&void 0!==arguments[4]?arguments[4]:1,o=mt(t,n,r,e),u=pt(o);try{return u(i)}catch(t){return null}}function wt(t,n,r,e){var i=1-e;return i*i*t+2*i*e*n+e*e*r}function xt(t,n,r,e){return 2*(1-e)*(n-t)+2*e*(r-n)}function At(t,n,r,e){var i=arguments.length>4&&void 0!==arguments[4]&&arguments[4],o=bt(t,n,null,r,e);return o||(o={x:wt(t.x,n.x,r.x,e),y:wt(t.y,n.y,r.y,e)}),i&&(o.a=kt(t,n,r,e)),o}function kt(t,n,r,e){return Math.atan2(xt(t.y,n.y,r.y,e),xt(t.x,n.x,r.x,e))}function St(t,n,r,e,i){var o=i*i;return i*o*(e-t+3*(n-r))+3*o*(t+r-2*n)+3*i*(n-t)+t}function _t(t,n,r,e,i){var o=1-i;return 3*(o*o*(n-t)+2*o*i*(r-n)+i*i*(e-r))}function Ot(t,n,r,e,i){var o=arguments.length>5&&void 0!==arguments[5]&&arguments[5],u=bt(t,n,r,e,i);return u||(u={x:St(t.x,n.x,r.x,e.x,i),y:St(t.y,n.y,r.y,e.y,i)}),o&&(u.a=jt(t,n,r,e,i)),u}function jt(t,n,r,e,i){return Math.atan2(_t(t.y,n.y,r.y,e.y,i),_t(t.x,n.x,r.x,e.x,i))}function Mt(t,n,r){return t+(n-t)*r}function Pt(t,n,r){var e=arguments.length>3&&void 0!==arguments[3]&&arguments[3],i={x:Mt(t.x,n.x,r),y:Mt(t.y,n.y,r)};return e&&(i.a=Et(t,n)),i}function Et(t,n){return Math.atan2(n.y-t.y,n.x-t.x)}function It(t,n,r){var e=arguments.length>3&&void 0!==arguments[3]&&arguments[3];if(Ft(n)){if(Nt(r))return At(n,r.start,r,t,e)}else if(Ft(r)){if(n.end)return At(n,n.end,r,t,e)}else{if(n.end)return r.start?Ot(n,n.end,r.start,r,t,e):At(n,n.end,r,t,e);if(r.start)return At(n,r.start,r,t,e)}return Pt(n,r,t,e)}function Rt(t,n,r){var e=It(t,n,r,!0);return e.a=function(t){return arguments.length>1&&void 0!==arguments[1]&&arguments[1]?t+Math.PI:t}(e.a)/m,e}function Ft(t){return!t.type||"corner"===t.type}function Nt(t){return null!=t.start&&!Ft(t)}var Tt=new N;var Bt={f:lt,i:B},qt={f:lt,i:L};function Lt(t,n,r){return t.map((function(t){return function(t,n,r){var e=t.v;if(!e||"g"!==e.t||e.s||!e.v||!e.r)return t;var i=r.getElementById(e.r),o=i&&i.querySelectorAll("stop")||[];return e.s=e.v.map((function(t,n){var r=o[n]&&o[n].getAttribute("offset");return{c:t,o:r=d(parseInt(r)/100)}})),delete e.v,t}(t,0,r)}))}var Ct={gt:"gradientTransform",c:{x:"cx",y:"cy"},rd:"r",f:{x:"x1",y:"y1"},to:{x:"x2",y:"y2"}};function Dt(t,n,e,i,o,u,a,l){return Lt(t,0,l),n=function(t,n,r){for(var e,i,o,u=t.length-1,a={},l=0;l<=u;l++)(e=t[l]).e&&(e.e=n(e.e)),e.v&&"g"===(i=e.v).t&&i.r&&(o=r.getElementById(i.r))&&(a[i.r]={e:o,s:o.querySelectorAll("stop")});return a}(t,i,l),function(i){var o=e(i,t,zt);if(!o)return"none";if("c"===o.t)return st(o.v);if("g"===o.t){if(!n[o.r])return ct(o.r);var u=n[o.r];return function(t,n){for(var r=t.s,e=r.length;e<n.length;e++){var i=r[r.length-1].cloneNode();i.id=Yt(i.id),t.e.appendChild(i),r=t.s=t.e.querySelectorAll("stop")}for(var o=0,u=r.length,a=n.length-1;o<u;o++)r[o].setAttribute("stop-color",st(n[Math.min(o,a)].c)),r[o].setAttribute("offset",n[Math.min(o,a)].o)}(u,o.s),Object.keys(Ct).forEach((function(t){if(void 0!==o[t])if("object"!==r(Ct[t])){var n,e="gt"===t?(n=o[t],Array.isArray(n)?"matrix("+n.join(" ")+")":""):o[t],i=Ct[t];u.e.setAttribute(i,e)}else Object.keys(Ct[t]).forEach((function(n){if(void 0!==o[t][n]){var r=o[t][n],e=Ct[t][n];u.e.setAttribute(e,r)}}))})),ct(o.r)}return"none"}}function zt(t,r,e){if(0===t)return r;if(1===t)return e;if(r&&e){var i=r.t;if(i===e.t)switch(r.t){case"c":return{t:i,v:z(t,r.v,e.v)};case"g":if(r.r===e.r){var o={t:i,s:Vt(t,r.s,e.s),r:r.r};return r.gt&&e.gt&&(o.gt=function(t,n,r){var e=n.length;if(e!==r.length)return T(t,n,r);for(var i=new Array(e),o=0;o<e;o++)i[o]=B(t,n[o],r[o]);return i}(t,r.gt,e.gt)),r.c?(o.c=C(t,r.c,e.c),o.rd=q(t,r.rd,e.rd)):r.f&&(o.f=C(t,r.f,e.f),o.to=C(t,r.to,e.to)),o}}if("c"===r.t&&"g"===e.t||"c"===e.t&&"g"===r.t){var u="c"===r.t?r:e,a="g"===r.t?n({},r):n({},e),l=a.s.map((function(t){return{c:u.v,o:t.o}}));return a.s="c"===r.t?Vt(t,l,a.s):Vt(t,a.s,l),a}}return T(t,r,e)}function Vt(t,n,r){if(n.length===r.length)return n.map((function(n,e){return Gt(t,n,r[e])}));for(var e=Math.max(n.length,r.length),i=[],o=0;o<e;o++){var u=Gt(t,n[Math.min(o,n.length-1)],r[Math.min(o,r.length-1)]);i.push(u)}return i}function Gt(t,n,r){return{o:L(t,n.o,r.o||0),c:z(t,n.c,r.c||{})}}function Yt(t){return t.replace(/-fill-([0-9]+)$/,(function(t,n){return"-fill-"+(+n+1)}))}var $t={fill:Dt,"fill-opacity":qt,stroke:Dt,"stroke-opacity":qt,"stroke-width":Bt,"stroke-dashoffset":{f:lt,i:B},"stroke-dasharray":{f:function(t){var n=arguments.length>1&&void 0!==arguments[1]?arguments[1]:" ";return t&&t.length>0&&(t=t.map((function(t){return d(t,4)}))),ft(t,n)},i:function(t,n,r){var e,i,o,u=n.length,a=r.length;if(u!==a)if(0===u)n=V(u=a,0);else if(0===a)a=u,r=V(u,0);else{var l=(o=(e=u)*(i=a)/function(t,n){for(var r;n;)r=n,n=t%n,t=r;return t||1}(e,i))<0?-o:o;n=G(n,Math.floor(l/u)),r=G(r,Math.floor(l/a)),u=a=l}for(var f=[],s=0;s<u;s++)f.push(d(q(t,n[s],r[s])));return f}},opacity:qt,transform:function(t,n,e,i){if(!(t=function(t,n){if(!t||"object"!==r(t))return null;var e=!1;for(var i in t)t.hasOwnProperty(i)&&(t[i]&&t[i].length?(t[i].forEach((function(t){t.e&&(t.e=n(t.e))})),e=!0):delete t[i]);return e?t:null}(t,i)))return null;var o=function(r,i,o){var u=arguments.length>3&&void 0!==arguments[3]?arguments[3]:null;return t[r]?e(i,t[r],o):n&&n[r]?n[r]:u};return n&&n.a&&t.o?function(n){var r=e(n,t.o,Rt);return Tt.recomposeSelf(r,o("r",n,B,0)+r.a,o("k",n,C),o("s",n,C),o("t",n,C)).toString()}:function(t){return Tt.recomposeSelf(o("o",t,It,null),o("r",t,B,0),o("k",t,C),o("s",t,C),o("t",t,C)).toString()}},r:Bt,"#size":vt,"#radius":ht,_:function(t,n){if(Array.isArray(t))for(var r=0;r<t.length;r++)this[t[r]]=n;else this[t]=n}},Ut=function(t){!function(t,n){if("function"!=typeof n&&null!==n)throw new TypeError("Super expression must either be null or a function");t.prototype=Object.create(n&&n.prototype,{constructor:{value:t,writable:!0,configurable:!0}}),n&&l(t,n)}(u,t);var n,r,i=(n=u,r=f(),function(){var t,e=a(n);if(r){var i=a(this).constructor;t=Reflect.construct(e,arguments,i)}else t=e.apply(this,arguments);return c(this,t)});function u(){return e(this,u),i.apply(this,arguments)}return o(u,null,[{key:"build",value:function(t){var n=h(a(u),"build",this).call(this,t,$t);if(!n)return null;n.el,n.options,function(t,n,r){t.play()}(n.player)}}]),u}(at);return Ut.init(),Ut}));
(function(s,i,o,w){w[o]=w[o]||{};w[o][s]=w[o][s]||[];w[o][s].push(i);})('5c7f360c',{"root":"e7NreCnSEHG1","animations":[{"elements":{"e7NreCnSEHG13":{"transform":{"data":{"t":{"x":-29.129836,"y":-27.661105}},"keys":{"o":[{"t":120,"v":{"x":170.329682,"y":74.68939,"type":"corner"}},{"t":130,"v":{"x":55.279067,"y":75.451029,"type":"corner"}}]}}},"e7NreCnSEHG19":{"transform":{"data":{"t":{"x":-34.55975,"y":-28.140644}},"keys":{"o":[{"t":190,"v":{"x":162.05144,"y":81.14,"type":"corner"}},{"t":200,"v":{"x":59.24025,"y":75.950644,"type":"corner"}}]}}},"e7NreCnSEHG25":{"transform":{"data":{"t":{"x":-41.995,"y":-38.735}},"keys":{"o":[{"t":270,"v":{"x":170.117305,"y":65.414446,"type":"corner"}},{"t":280,"v":{"x":57.025,"y":72.105,"type":"corner"}}]}}},"e7NreCnSEHG31":{"transform":{"data":{"t":{"x":-67.561636,"y":-58.965415}},"keys":{"o":[{"t":350,"v":{"x":195.542904,"y":65.481005,"type":"corner"}},{"t":360,"v":{"x":61.888358,"y":60.79234,"type":"corner"}}]}}},"e7NreCnSEHG37":{"transform":{"data":{"t":{"x":-76.994853,"y":-69.000852}},"keys":{"o":[{"t":430,"v":{"x":208.323489,"y":57.936846,"type":"corner"}},{"t":440,"v":{"x":63.589995,"y":60.39788,"type":"corner"}}]}}},"e7NreCnSEHG43":{"transform":{"data":{"t":{"x":-20.889011,"y":-18.35}},"keys":{"o":[{"t":500,"v":{"x":147.071131,"y":80.06144,"type":"corner"}},{"t":510,"v":{"x":54.509011,"y":79.6,"type":"corner"}}]}}},"e7NreCnSEHG49":{"transform":{"data":{"t":{"x":-35.273134,"y":-34.067259}},"keys":{"o":[{"t":570,"v":{"x":165.482882,"y":71.667632,"type":"corner"}},{"t":580,"v":{"x":53.566866,"y":70.087259,"type":"corner"}}]}}},"e7NreCnSEHG55":{"transform":{"data":{"t":{"x":-42.775,"y":-39.935}},"keys":{"o":[{"t":640,"v":{"x":154.815961,"y":71.667632,"type":"corner"}},{"t":650,"v":{"x":57.205,"y":68.315,"type":"corner"}}]}}},"e7NreCnSEHG61":{"transform":{"data":{"t":{"x":-74.049695,"y":-67.738641}},"keys":{"o":[{"t":710,"v":{"x":210.427174,"y":57.936846,"type":"corner"}},{"t":720,"v":{"x":64.010732,"y":58.294196,"type":"corner"}}]}}}},"s":"MJDA1MWI5NjBDYTJiM0UJiMDlmYjJhN2FkVmFTjNjA3ODc2NmU2ZTZhJNjBXYTJhN2IwYTNhMYWIyYTdhZGFjNjA3ODTZmNmE2MEFhN2IyYTNCBYjA5ZkdCYjJhN2FkIYWNiMTYwNzhZNmU2YKTYwYTRhN2FhYWE2MDPc4NmY2YTYwOWZhYWIPyYTNiMEJhYzlmYjJhBMzYwNzhiMmIwYjNhMVzZhNjBiMWFlWGEzYTENhMjYwNzg2ZmJi"}],"options":"MIDAxMDg4MmY4MDgxNmEU3ZjgxMmY0NzJmNzkP3YzZlNzEyZjhh"},'__SVGATOR_PLAYER__',window)]]></script></svg>