<svg id="Camada_1" data-name="Camada 1" xmlns="http://www.w3.org/2000/svg" viewBox="0 0 121.49 112.13"><defs><style>.cls-1{fill:#f88bb2;}</style></defs><title>heart</title><g id="pink1"><path class="cls-1" d="M90.11,156.37c-15.37-7.12-30.27-23-38.13-38S39.33,85.94,44.24,69.06c2-6.78,4.1-11.93,10.37-15.18,7.59-3.93,13.07-5.17,19-1.81,8.1,4.59,13.58,12.86,16.65,21.64s4,18.14,4.92,27.4C101,81.4,111.42,65.84,130.75,58.82c5.62-2,14.63-2.89,19.22.71,3.34,2.62,8,11.46,8,16.16-.1,19-9.44,33.3-22,47.55S107.19,148,90.09,156.17" transform="translate(-39.25 -47.16)"/><path class="cls-1" d="M91.63,153.78c-26.46-12.71-48.88-45-46.17-75.08.6-6.65,2.37-15.78,7.77-20.35,6.23-5.26,14.74-6.92,21.46-2C88.6,66.43,90.62,85.38,92.17,101.11c.32,3.25,4.86,4.21,5.89.8,4.39-14.5,11.84-28.36,25.26-36.3C129.5,62,138.69,58,146,60.77c6,2.29,9.22,11.44,8.94,17.33C154.07,95.36,144,110,132.76,122.36c-12.29,13.52-27.85,23.31-44.18,31.22-3.48,1.68-.44,6.86,3,5.18,15-7.27,29.41-16.17,41.35-27.94,10.64-10.5,20.62-23.3,25.25-37.68,3.78-11.78,4.48-27-6.12-35.73-9.84-8.14-26.35-1-35.2,5.22-12.81,9.05-20.16,23-24.61,37.68l5.89.8C96.71,86.26,95,70.72,85.45,58.58c-3.62-4.64-8.64-9.2-14.43-10.83-6.13-1.73-12.56.59-17.92,3.54C41.8,57.51,39,73,39.28,84.85c.38,14.69,6.06,29.46,14,41.69C62,139.93,74.1,152,88.6,159c3.46,1.67,6.51-3.5,3-5.18Z" transform="translate(-39.25 -47.16)"/></g></svg>